<?xml version="1.0" standalone="no"?>
<!DOCTYPE svg PUBLIC "-//W3C//DTD SVG 1.1//EN" "http://www.w3.org/Graphics/SVG/1.1/DTD/svg11.dtd">
<svg xmlns="http://www.w3.org/2000/svg">
<metadata>Generated by Fontastic.me</metadata>
<defs>
<font id="food" horiz-adv-x="512">
<font-face font-family="food" units-per-em="512" ascent="480" descent="-32"/>
<missing-glyph horiz-adv-x="512" />

<glyph glyph-name="asparagus" unicode="&#97;" d="M188 424l20-20 12 12-32 32-32-32 12-12z m20-64l12 13-32 32-32-32 12-13 20 20z m157 101l-37 51-18-24-17 24-18-24-18 24-17-23-17 23-18-24-17 24-34-45c-30-41-30-97 0-138l8-11 0-123-21 22c-4 3-9 3-13 0-3-4-3-9 0-13l30-30-30-29c-3-4-3-9 0-13 2-1 4-2 7-2 2 0 4 1 6 2l21 22 0-154 192 0 0 148 0 9 0 0 0 35c0 0 0 0 0 0l0 0 0 128 11 14c28 38 28 89 0 127z m-72 21l23-31c24-32 24-75 0-106l-14-20 0-116-18 0 0 111 11 14c28 38 28 89 0 127l-9 13z m-36 1l24-32c23-32 23-74 0-106l-14-19 0-117-17 0 0 111 10 14c28 38 28 89 0 127l-9 13z m-34 0l6-9 0 0 17-23c23-32 23-74 0-106l-14-19 0-117-17 0 0 111 7 9c0 0 0 1 0 1l3 4c29 38 29 89 0 127l-3 5c0 0 0 1 0 1l-6 7z m-54-27l19 27 7-9 0 0 13-18c25-35 25-81 0-116l-11-14 0-117-17 0 0 115-11 15c-26 35-26 82 0 117z m28-264l139 0 0-9-162 0-9 9z m0-175l-17 0 0 123 17 0z m18 0l0 123 17 0 0-123z m52 0l-18 0 0 123 18 0z m17 0l0 123 18 0 0-123z m53 0l-18 0 0 123 18 0z m-18 140l-154 0 9 9 162 0 0-9z m32 188l-14-20 0-116-18 0 0 111 11 14c28 38 28 89 0 127l-9 13 7 8 23-31c24-32 24-75 0-106z"/>
<glyph glyph-name="beans" unicode="&#98;" d="M242 391c-3 5-9 6-14 2-5-4-11-6-18-6-7 0-13 2-19 6-4 4-10 3-14-2-3-4-3-10 2-14 8-7 19-11 31-11 11 0 22 4 31 11 4 4 5 10 1 14z m263-143c-9 22-23 41-42 55-13 10-28 17-44 20 3 33-7 66-28 91-22 28-55 43-91 43l-6 0c-25 0-50-9-71-27-4-2-9-4-13-4-5 0-9 2-13 4-21 18-46 27-71 27l-6 0c-27 0-51-8-71-23-19-14-33-34-42-56-8-23-9-46-4-69 6-24 20-46 40-63 15-13 32-24 50-33-1-11 0-23 3-34 6-25 19-46 39-63 47-39 106-61 167-61 61 0 120 22 167 61 20 17 34 38 40 63 5 22 4 46-4 69z m-409-13c-14 7-28 16-40 27-39 32-41 77-29 109 11 31 41 65 93 65l6 0c20 0 41-7 58-21 7-6 17-9 26-9 9 0 18 3 25 9 18 14 38 21 59 21l6 0c30 0 57-12 76-35 17-21 25-48 23-75-2 0-5 0-7 0l-6 0c-25 0-50-9-71-26-4-3-8-4-13-4-4 0-9 1-13 4-21 17-46 26-71 26l-6 0c-26 0-51-8-71-23-19-14-33-33-41-55-2-5-3-9-4-13z m360-104c-43-35-98-55-154-55-56 0-111 20-154 55-39 33-40 78-29 110 11 31 42 65 93 65l6 0c21 0 41-8 59-22 7-6 16-9 25-9 9 0 19 3 26 9 17 14 38 22 58 22l6 0c52 0 82-34 93-65 12-32 10-77-29-110z m-123 131c-3 5-10 6-14 2-5-4-12-6-18-6-7 0-14 2-19 6-4 4-11 3-14-2-4-4-3-10 1-14 9-7 20-11 32-11 11 0 22 4 31 11 4 4 5 10 1 14z m79-135c-2 5-9 7-14 4-30-15-62-23-96-23-5 0-10-4-10-10 0-5 5-10 10-10 37 0 73 9 106 25 5 3 7 9 4 14z m40 29c-4 4-10 5-15 1-2-2-5-4-7-6-4-3-5-9-2-14 2-2 5-4 8-4 2 0 5 1 6 2 3 2 6 4 8 7 5 3 5 10 2 14z"/>
<glyph glyph-name="beetroot" unicode="&#99;" d="M403 219l-101 0c-6 0-11-5-11-11 0-5 5-10 11-10l101 0c6 0 11 5 11 10 0 6-5 11-11 11z m-230-7l-59 0c-6 0-10-5-10-10 0-6 4-11 10-11l59 0c6 0 11 5 11 11 0 5-5 10-11 10z m37-64l-29 0c-6 0-11-5-11-11 0-5 5-10 11-10l29 0c6 0 11 5 11 10 0 6-5 11-11 11z m119 14l-29 0c-6 0-11-5-11-10 0-6 5-11 11-11l29 0c6 0 11 5 11 11 0 5-5 10-11 10z m-58 105l-41 0c-6 0-10-5-10-11 0-6 4-10 10-10l41 0c6 0 11 4 11 10 0 6-5 11-11 11z m3-51c-2 1-4 3-7 3-3 0-5-2-7-3-2-2-3-5-3-8 0-3 1-5 3-7 2-2 4-3 7-3 3 0 5 1 7 3 2 2 3 4 3 7 0 3-1 6-3 8z m120 132c-27 23-61 38-98 45 6 21 16 42 25 47l12 7c5 3 6 9 3 14l-13 24c-3 5-9 7-14 4l-12-7c-5-3-10-6-14-11l0 31c0 5-5 10-11 10l-32 0c-6 0-11-5-11-10l0-23c-7 10-16 17-25 22l-14 8c-5 3-11 1-14-4l-17-29c-3-5-1-11 4-14l15-8c12-7 25-36 32-62-35-7-66-23-92-44-37-32-58-75-58-121 0-72 53-136 132-159 25-10 44-17 54-59 0-5 5-9 10-9 5 0 9 3 10 8 11 41 33 52 54 60 79 23 132 87 132 159 0 46-21 89-58 121z m-111 87c7 14 15 24 24 29l3 2 3-6-3-2c-12-7-21-23-27-39z m-33 56l12 0 0-95c-2 0-4 1-6 1-2 0-4-1-6-1l0 95z m-62-19l-5 3 6 11 5-3c12-7 23-20 33-40 1-1 1-2 2-3l0-41c-6 26-20 61-41 73z m126-385c-1 0-1 0-1 0-21-7-42-19-56-45-15 29-37 37-58 45 0 0 0 0-1 0-70 21-117 77-117 140 0 13 2 25 6 37l81 0c6 0 10 5 10 10 0 6-4 11-10 11l-73 0c26 53 89 91 161 91 36 0 69-10 97-26l-61 0c-6 0-11-4-11-10 0-6 5-10 11-10l90 0c0 0 0 0 0 0 30-27 49-63 49-103 0-63-47-119-117-140z"/>
<glyph glyph-name="bell-pepper" unicode="&#100;" d="M442 385c-15 16-37 26-60 26-25 0-48-12-63-31-8 10-18 18-30 23 0 24-3 62-18 84-15 20-36 29-57 23-23-5-40-26-43-52-2-17 10-33 27-35 8-1 16 1 23 7 1 0 2 1 3 3 2-8 2-17 3-28-14-5-25-13-34-24-15 19-38 30-63 30-23 0-45-10-60-26-15-16-22-35-20-56 5-87 32-212 50-269 7-22 27-60 62-60 18 0 35 8 47 21 12-13 28-21 47-21 18 0 35 8 47 21 11-13 28-21 47-21 35 0 55 38 62 60 18 57 45 182 50 269 2 21-5 40-20 56z m-224 81c-2-2-5-6-5-13-1-3-2-6-5-7-2-2-5-3-8-3-5 1-10 7-9 12 2 18 13 32 27 36 14 3 27-3 36-16 8-12 14-36 15-65-5 0-9 1-14 1-2 0-5 0-8-1-1 16-3 41-11 53-1 1-2 3-4 4-4 4-10 3-14-1z m224-135c-6-86-32-209-49-265-4-13-19-46-43-46-16 0-31 9-38 24-2 3-5 6-9 6-4 0-8-3-9-6-8-15-22-24-38-24-16 0-31 9-38 23-2 4-5 6-9 6-4 0-7-2-9-6-7-14-22-23-38-23-24 0-39 33-43 46-17 56-43 179-49 265-1 14 4 28 15 40 11 12 28 19 45 19 23 0 43-12 54-32 2-4 5-6 9-6 4 0 7 2 9 6 10 20 31 32 53 32 24 0 44-13 54-33 2-4 6-6 10-6 3 0 7 2 9 6 10 20 31 33 54 33 17 0 34-7 45-19 11-12 16-26 15-40z m-225-257l-8 160c0 5-5 10-10 9-6 0-10-5-10-10l8-160c0-6 5-10 10-10 0 0 0 0 1 0 5 0 10 5 9 11z m-10 204l-1 28c-1 6-6 10-11 10-6 0-10-5-10-11l2-28c0-6 4-10 10-10 0 0 0 0 0 0 6 1 10 5 10 11z m99-166c-5 0-10-4-10-10l-2-27c0-6 4-11 10-11 0 0 0 0 0 0 6 0 10 4 11 10l1 27c0 6-4 11-10 11z m11 223c-5 0-10-4-10-10l-9-176c0-6 4-11 10-11 0 0 0 0 0 0 5 0 10 4 10 10l9 176c0 6-4 11-10 11z"/>
<glyph glyph-name="cabbage" unicode="&#101;" d="M496 365c-1 0-3 0-4 0-4 0-8 0-12-2 6 41 3 87-37 87-1 0-1 0-1 0-15 0-36-1-59-7-27 21-70 40-138 41 0 0-7 0-7 0-119 0-166-67-185-121-1 0-1 0-1 0-24 0-41-8-45-29-46-273 143-306 238-306 3 0 7 0 10 0 0 0 1 0 2 0 293 0 267 327 239 337z m-54 64l1 0c7 0 10-2 12-5 3-5 5-14 6-25 0-11-1-24-3-40-1-3-1-6-2-8-24-15-56-38-88-57 10 12 18 24 24 34 15 26 23 47 23 48l0 0c1 1 1 3 1 4 0 6-5 10-11 10-4 0-8-2-10-7l0 1c0-1-28-76-84-118-7-3-14-4-20-5-19-2-37-6-53-9-7 15-13 27-20 35 36 10 60 29 88 83 11 21 32 36 62 47 32 11 63 12 74 12z m-235-89c0 14-10 24-19 32-8 7-15 14-17 23 0 1 0 1 0 2 10 2 26 5 44 6 33 3 57 0 68-9 2-3 5-6 6-12-1-1-1-2-1-2-29-55-50-68-88-75-2 1-4 2-6 4 10 11 14 21 13 31z m38 123c29-1 55-5 78-12 12-4 23-10 34-16-20-7-39-18-54-33-2 3-4 5-6 7-15 14-44 19-84 16-13-1-25-3-34-5 7 10 18 18 28 25 15 9 30 15 38 18z m-160-81c21 41 56 66 104 76-36-24-41-49-39-65 2-17 14-28 23-37 8-7 13-12 13-17 0-3-2-9-9-18-31 18-69 34-102 39 3 7 6 15 10 22z m40-206c-30 47-40 89-40 89l0 0c-1 5-5 8-10 8-6 0-11-5-11-11 0 0 0-1 0-2l0 0c1-2 11-45 42-95 18-30 40-55 64-77 17-15 36-28 55-38-26 1-51 5-73 12-37 11-67 30-88 55-40 47-52 119-36 214 1 4 2 5 5 7 2 1 7 3 19 3 21 0 52-8 83-22 29-14 55-31 66-45 9-11 27-42 52-138 8-33 15-64 19-84-60 22-110 63-147 124z m365 103c0-21-3-41-8-61-6-22-13-43-23-61-18-33-42-58-71-76-27-16-58-26-94-30-2 9-4 21-7 34 59 31 99 73 123 102 25 33 36 59 37 61 1 1 1 2 1 4 0 6-5 10-11 10-4 0-8-2-10-6 0-2-40-93-145-149-9 39-22 87-36 125 15 3 31 6 47 8 9 1 17 3 26 6l0-1c1 1 1 1 2 2 36 12 75 38 109 61 15 10 29 20 41 27 6 3 11 6 14 7 3-11 7-32 5-63z"/>
<glyph glyph-name="carrot" unicode="&#102;" d="M501 278c18 22 10 44 4 51-13 20-31 32-54 36-2 1-4 1-5 1 2 2 4 4 6 6 15 14 23 30 22 46-1 24-22 40-22 41l-1 0c-36 24-76-5-77-6l-2-2c-1-1-1-1-2-2-4 20-15 36-32 47-4 4-31 23-61 7-4-1-7-4-11-7-9 3-19 4-29 0-13-5-22-16-23-31-2-15 6-30 20-37 12-7 26-20 40-44-8 0-16-1-23-3-44-16-219-271-250-354-2-7-1-15 4-20 3-3 7-4 12-4 2 0 5 0 7 1 84 31 340 205 356 248 2 6 3 12 3 18 24-11 36-23 43-32 9-13 25-21 40-21 0 0 0 0 1 0 12 0 24 6 31 16 10 15 6 32 1 42 1 1 1 2 2 3z m-10 41c1-1 9-13-3-29 0 0 0 1-1 1 0 1-1 1-2 2-1 2-3 4-5 5 0 1-1 1-1 2-27 27-58 35-86 35-10 0-20-1-29-3 1 1 2 1 3 2 1 0 3 1 4 1 2 1 3 2 5 2 1 1 2 1 4 2 2 1 5 1 7 2 2 1 3 1 5 2 1 0 3 1 4 1 2 1 4 1 5 2 2 0 4 0 6 1 2 0 4 1 7 1 1 0 2 0 4 1 10 1 20 1 30-1 18-3 32-13 43-29z m-106 120c5 4 33 21 56 6 2-1 15-13 16-28 0-11-5-22-17-32-6-7-15-13-24-19-1 0-2 0-3-1-3 0-5 0-8-1-1 0-3-1-5-1-1 0-3-1-5-1-2-1-4-1-5-2-2 0-4-1-5-1-2-1-4-1-6-2-1-1-3-1-4-2-2 0-4-1-6-2-1 0-2-1-3-1-8-3-15-6-21-10 0 0 0 0 0 0 5 10 11 22 15 34 1 1 1 2 1 3 1 2 2 4 3 7 0 1 0 2 1 3 1 2 1 5 2 7 0 1 0 3 1 4 0 2 1 4 1 7 0 1 1 3 1 4 0 2 1 4 1 7 0 0 0 1 0 2 5 7 9 14 14 19z m-100 49c22 11 41-5 42-5 0-1 1-1 1-1 14-9 22-21 25-37 2-7 2-14 1-21l0-1c-1-13-5-27-10-41 1 9 0 17-1 26 0 0 0 1 0 1-1 2-1 4-2 5 0 2 0 3 0 4-1 1-1 2-1 3-1 1-1 3-2 4 0 1 0 1 0 2-4 12-11 24-21 35 0 0-1 0-1 1-1 1-3 3-4 4-1 1-2 2-3 2-1 2-2 3-3 4-3 2-5 4-8 6 0 0 0 0 0 0 0 0-2 2-4 3 0 0 0 0 0 0-2 2-5 4-9 6 0 0 0 0 0 0z m-43-45c-7 4-12 12-11 21 0 3 2 12 12 16 3 1 6 1 9 1 4 0 9-1 13-3 0 0 0 0 0 0 0 0 1 0 1 0 1 0 3-1 4-2 1 0 1 0 2-1 1 0 2-1 3-1 1-1 1-1 2-1 4-3 8-6 10-7 0 0 0-1 0-1 0 0 1 0 1 0 4-3 7-6 10-9 1-1 2-2 3-3 2-2 4-4 6-7 1-1 2-2 2-3 2-2 4-5 5-7 1-1 2-2 2-3 2-3 3-6 4-9 1-1 1-1 1-2 6-16 8-35 4-55-2-14-7-27-11-37-1 5-3 10-4 15-1 1-1 1-1 2-2 4-3 9-5 13 0 0 0 1-1 2-18 47-42 70-61 81z m121-185c-4-13-37-42-81-74-1 0-1 0-2 0-15 2-33 9-42 22-3 4-8 5-12 2-4-3-5-8-2-12 10-14 25-22 39-26-27-20-58-41-88-61-2 1-3 2-5 2-9 1-20 6-26 14-3 4-8 5-12 2-4-3-5-8-2-12 6-9 16-15 26-18-57-36-110-66-138-77 0 0 0 0-1 0 0 0 1 0 1 0 7 19 20 45 36 73 0 0 1-1 1-1 6-5 13-9 20-12 1 0 2-1 3-1 4 0 7 2 8 5 2 5 0 10-4 12-6 3-11 6-17 10-1 1-2 1-3 1 21 34 45 71 70 107 3-9 9-17 17-23 1-1 3-2 5-2 2 0 5 2 7 4 3 4 2 9-2 12-8 6-13 17-14 26 0 1 0 1 0 1 19 27 38 53 55 74 4-15 12-30 26-40 1-1 3-2 5-2 3 0 5 2 7 4 3 4 2 9-2 12-13 9-20 28-22 42 0 0 0 1 0 1 19 23 35 39 43 41 4 2 8 3 13 3 4 0 9-1 13-2 4-9 8-18 11-28 0-1 0-2 1-2 1-4 2-9 3-13 1-1 1-2 1-3 2-5 3-11 4-16 0-1 0-1 0-1 1-1 1-1 1-1 0-1 0-1 0-1 0 0 0 0 0 0 1-1 1-1 1-1 0 0 0 0 0 0 0-1 0-1 0-1 0 0 0 0 0 0 0 0 0 0 0 0 1 0 1 0 1 0 0 0 0 0 0-1 1 0 1 0 1 0 0 0 0 0 0 0 1 0 1 0 1 0 0-1 0-1 1-1 0 0 0 0 0 0 5-1 10-3 15-4 1 0 2-1 3-1 4-1 7-2 11-3 1 0 2-1 3-1 3-1 7-2 10-4 1 0 2 0 2 0 4-2 8-3 12-5 0 0 0 0 0 0 1-7 1-14-2-20z m120-15c-4-7-12-8-17-8 0 0 0 0 0 0-10 0-20 5-26 14-12 16-34 31-64 43 0 0 0 1 0 1 0 0-1 0-1 0-3 1-6 2-8 3-3 1-5 2-8 3-2 1-5 2-7 3-4 1-8 2-12 3-1 1-2 1-4 2 1 0 2 0 2 0 1 0 1 0 1 1 27 9 74 19 114-9 2-1 4-3 6-5 1-1 2-1 3-2 6-5 12-12 18-19l1-2c0 0 0 0 0 0 3-4 10-16 2-28z m-133 18c-17 7-34 19-49 36-3 4-8 4-12 1-4-3-4-9-1-12 17-20 36-33 56-41 1-1 2-1 3-1 4 0 7 2 8 6 2 4 0 9-5 11z"/>
<glyph glyph-name="cebollin" unicode="&#103;" d="M128 209c-4 4-10 5-15 1 0 0-25-22-49-43-5-3-5-10-1-14 2-3 5-4 8-4 2 0 4 1 6 2 25 21 50 43 50 43 4 4 5 10 1 15z m-73-63c-4 4-10 5-15 1 0 0 0 0 0 0-5-3-5-10-2-14 2-3 5-4 9-4 2 0 4 0 6 2 5 3 5 10 2 15z m455 208l-25 32c-4 4-10 5-14 2l-24-16c0 1-1 1-1 2l-27 27c-2 2-5 3-8 3 0 0 0 0 0 0l44 36c2 2 4 4 4 7 0 3-1 6-3 8l-29 29c-4 4-10 4-14 1l-27-23c-1 2-2 3-3 4l-28 28c-2 2-5 4-8 3-3 0-6-1-8-4l-157-198c-12-10-132-100-159-120-14-11-22-25-23-42-1-17 5-34 18-46 3-3 5-5 8-7-1-15 4-30 13-42 11-14 27-22 44-23 1 0 2 0 3 0 15 0 30 6 41 17 24 25 130 135 139 144l225 38c3 1 5 2 7 5 1 2 2 5 1 8l-11 53c0 3-2 5-5 6-2 2-5 2-8 2l-70-17 102 68c3 1 4 4 5 7 0 3 0 6-2 8z m-91 108l14-13-143-116 56 70z m-30-76l-162-162c-4-2-18-10-38-22 20 27 36 49 38 50l4 5z m-41 85l14-14-32-40c0 0 0 0 0 0l-113-143-5 6-8 8z m-305-377c0 0 0 0-1 0-3 2-6 5-9 7-8 9-13 20-12 31 0 7 3 18 15 26 24 19 125 94 153 115l7-7 8-8c-11-15-37-51-62-84 0 0 0 0 0 0-23-30-44-58-53-69-8-12-19-15-26-15-7-1-14 1-20 4z m69-47c-10-10-21-12-28-11-11 0-21 6-28 15-5 6-8 12-9 19 5-1 9-1 13-1 2 0 3 0 4 0 16 1 31 9 42 23 9 11 29 39 51 68 31 18 61 35 74 43l7-9 7-9c-24-25-111-116-133-138z m148 153l-12 15 163 164 13-13-32-31c0 0 0 0 0 0z m210 65l7-32-173-29 51 34z m-127-10l64 64 67 46 12-15z"/>
<glyph glyph-name="celery" unicode="&#104;" d="M511 357c-1 21-15 40-34 50 2 5 3 11 2 18 0 14-6 28-17 38-11 11-26 18-41 18-6 0-11-1-16-2-9 18-28 32-50 33-15 1-30-5-40-16-3-3-6-7-8-12-7 3-13 4-20 4-14 0-27-5-36-15-15-15-19-37-11-56-6-3-10-6-14-10-10-10-15-24-14-39 1-13 6-26 15-35l-199-182c-1 0-1 0-1 0-34-35-34-91 0-125 17-17 40-26 62-26 23 0 46 9 63 26 0 0 0 0 0 0l182 200c9-8 21-12 33-13 1 0 2 0 3 0 15 0 28 6 37 16 4 3 7 7 9 12 6-3 13-4 20-4l0 0c13 0 26 5 36 15 15 15 18 37 11 56 5 3 10 6 14 10 10 10 14 24 14 39z m-385-306c-20-20-53-20-74 0-20 20-20 54 0 74l191 174c1-9 3-17 8-24l-165-165c-7-7-7-18 0-25 4-4 8-5 13-5 4 0 9 1 12 5l166 165c8-4 16-6 25-6 0 0 0 0 0 0z m345 292c-3-3-7-5-11-5-1 0-1 0-1 0-2 1-3 1-4 1-8 2-17-2-21-10-3-8-1-17 6-22 2-1 3-2 4-3 8-8 9-20 2-27-3-3-7-4-10-4 0 0 0 0 0 0-6 0-12 3-16 7-1 1-2 2-3 3-5 7-14 10-22 6-8-3-12-12-10-20 0-1 0-3 0-4 0-5-1-9-4-12-3-3-7-4-12-4-8 0-15 5-19 12 0 0 0 1 0 1-2 3-3 6-3 9 0 1 0 2 0 3 2 9-3 17-11 20-2 0-4 1-6 1-6 0-12-3-15-8-1-1-2-2-2-3-4-3-8-4-11-4-6 0-12 3-16 7-4 4-7 10-7 15 0 3 0 8 4 12 1 1 2 1 2 2 7 4 10 13 7 21-2 8-11 13-19 12-1-1-2-1-3-1-12 1-22 11-22 22-1 5 1 9 4 12 3 3 7 5 12 5 1-1 2-1 4-1 8-2 17 2 20 10 4 8 1 17-6 22-1 1-2 2-3 3-8 8-10 20-3 27 4 3 8 4 11 4 6 0 11-3 16-7 1-1 2-2 3-3 5-7 14-10 22-6 8 3 12 12 10 20-1 1-1 3-1 4 0 5 1 9 4 12 3 3 8 4 12 4 12 0 22-11 22-22 0-1 0-2 0-3-1-9 4-17 12-20 8-3 16 0 21 7 1 1 1 2 2 3 3 3 8 4 11 4 5 0 11-3 16-7 4-4 6-10 7-15 0-3-1-8-5-12 0-1-1-1-2-2-7-4-10-13-7-21 3-8 11-13 19-12 2 1 3 1 4 1 11-1 21-11 22-22 0-5-1-9-4-12z"/>
<glyph glyph-name="cucumber" unicode="&#105;" d="M384 442c-18 18-41 28-66 30l-36 36c-6 5-15 5-21 0-6-6-6-16 0-22l19-19c-15-5-29-13-41-25-19-19-30-45-30-72 0-74-29-143-81-195-40-40-40-105 0-145 20-19 45-30 73-30 0 0 0 0 0 0 27 0 53 11 72 30 46 46 81 99 105 159 24 57 36 118 36 181 0 27-11 53-30 72z m-132-391c-14-13-32-21-51-21 0 0 0 0 0 0-20 0-38 8-51 21-29 28-29 74 0 102 57 58 89 135 89 217 0 19 8 37 21 51 14 13 32 21 51 21 20 0 38-8 51-21 14-14 22-32 22-51 0-121-47-234-132-319z"/>
<glyph glyph-name="fries" unicode="&#106;" d="M443 226l-124 0 0 19c0 4-4 8-8 8-4 0-8-4-8-8l0-19-45 0 0 19c0 4-4 8-8 8-5 0-8-4-8-8l0-19-37 0c-5 0-8-3-8-8 0-4 3-7 8-7l37 0 0-40-77 0c-4 0-8-3-8-7 0-5 4-8 8-8l77 0 0-16c0-4 3-8 8-8 4 0 8 4 8 8l0 16 105 0 0-16c0-4 4-8 8-8 4 0 8 4 8 8l0 16 20 0c4 0 8 3 8 8 0 4-4 7-8 7l-20 0 0 18c0 5-4 8-8 8-4 0-8-3-8-8l0-18-105 0 0 40 45 0 0-16c0-5 4-8 8-8 4 0 8 3 8 8l0 16 124 0c4 0 8 3 8 7 0 5-4 8-8 8z m69 95c0 2-1 4-2 6l-31 31c-2 2-5 2-7 2 0 3-1 6-3 7l-36 25c-2 1-4 2-6 1-2 0-4-1-5-3l-20-28c-1 1-2 2-4 3l-41 15c-2 1-4 1-6 0-2-1-3-3-4-5l-1-1-34 7c-1 0-3 0-4-1-1 1-1 2-2 2l-39 20c-4 2-9 1-11-3l-13-25-17-5c-4-1-7-5-6-9l5-21-4-8-15 52c-1 4-6 6-10 5l-42-13c-2 0-4-2-5-4-1-2-1-4 0-6l0 0c-1-1-2-1-3-1l-8-5-9 29c-1 2-2 4-4 5-2 1-4 1-6 0l-42-12c-4-2-6-6-5-10l13-45-40 41c-4 3-9 3-12 0l-31-31c-1-1-2-3-2-6 0-2 1-4 2-5l40-39-1 0c-11 0-20-5-25-12-6-8-7-18-3-29l36-101c7-20 29-35 49-35l323 0c21 0 42 15 49 35l37 102c3 10 2 20-3 28-5 7-14 11-24 12l30 30c1 1 2 3 2 5z m-82 54l23-16-32-48-26-25-26 0z m-69-13l24-9-12-34-23-33-4 0z m-44 2l27-6-14-72-29 0z m-51 21l25-13-8-17-5 20c-1 2-2 3-4 5-2 1-4 1-6 0l-4-1z m32-36l-6-28-3 11z m-33 14l20-77-29 0-19 70z m-34-47l8-30-23 0z m-38 54l18-59-13-25-2 0-16 30-14 46z m-7-100l-39-39-39 39z m-40 76l33-60-32 0-25 47z m-30 30l7-24-16-9c-2-1-3-3-4-5 0-2 0-4 1-6l25-46-3 0-17 17-20 65z m-97-46l20 20 65-64-40 0z m472-66c2-3 3-8 1-13l-37-102c-4-13-20-24-34-24l-323 0c-14 0-29 11-34 24l-36 102c-2 5-2 10 1 13 2 4 6 6 12 6l45 0 55-56c2-1 4-2 6-2 2 0 4 1 5 2l56 56 270 0c6 0 10-2 13-6z m-34 22l-40 0 56 55 20-20z"/>
<glyph glyph-name="lettuce" unicode="&#107;" d="M498 350c0 2-2 4-4 5-7 3-15 5-22 7 3 35-4 59-22 75-17 15-41 21-70 27-11 3-24 6-36 10-53 15-102 1-134-13 0 0-1 0-1 0l-6-3c-4-2-5-7-3-11 2-4 7-6 11-4l5 4c30 13 76 25 123 11 13-4 26-7 38-10 52-12 84-19 79-82-8 1-17 3-25 3 0 0-1 0-1 0-1 0-2 1-3 1-2 0-3 0-5 0-2 0-4 0-5 0 0 0-1 0-1 0-26 0-51-4-75-13 0 0 0 1-1 1 0 0 0 1-1 2 0 0 0 1-1 2 0 0 0 1-1 1 0 1-1 2-1 2-1 1-1 1-1 1-5 7-10 13-17 19 3 2 7 4 12 6 0 0 0 0 1 0 13 5 33 10 60 8 5 0 8 3 9 8 0 4-4 8-8 8-21 2-39-1-53-4l6 19c1 4-1 9-6 10-4 1-8-1-10-6l-8-29c-7-3-13-7-16-9-10 7-20 12-31 16 0 0 0 0-1 0-1 1-2 1-3 2 0 0-1 0-1 0-2 0-4 1-6 1 0 1-1 1-2 1 0 0-1 0-2 0-1 1-2 1-2 1-1 0-2 0-3 0-1 1-2 1-3 1 0 0-1 0-1 0-2 0-4 1-5 1-1 0-1 0-2 0-1 0-2 0-3 0-1 0-1 0-1 0-1 1-1 1-2 1 0 1-1 1-1 1-1 1-2 1-3 2-2 1-3 1-5 2 0 0 0 0 0 0-1 1-2 2-4 2 0 0 0 0 0 0-42 22-81 26-117 11-34-13-57-41-70-61-3-4-2-9 2-11 4-3 9-2 11 2 24 36 75 88 158 49 0 0 0 0 0 0-17-3-33-10-48-20 0 0-1-1-1-1 0 0 0 0-1 0-1-1-2-2-3-2 0-1-1-1-1-2-1 0-1 0-2-1-1-1-1-1-2-2 0 0-1 0-1-1-13-11-24-25-32-41 0-1 0-1 0-1 0-1-1-2-1-3 0 0-1-1-1-1-20 6-41 10-64 13 0 0 0 0 0 0-2 0-4 0-6 0-1 1-1 1-2 1-2 0-4 0-5 0-2 0-3 0-5 0 0 1-1 1-2 1 0 0 0 0 0 0-6 0-12 0-18 1-4 0-8-3-9-7-2-13-3-25-4-38 0-3 0-7 0-11 0 0 0 0 0-1 3-34 11-85 35-132 0 0 0 0 0 0 44-76 121-127 208-136 0 0 1 0 1 0 0 0 0 0 0 0 0 0 1 0 1 0 0 0 1 0 1 0 6-1 12-1 18-1 3 0 6-1 9-1 50 0 97 16 138 44 4 3 4 8 2 11-3 4-8 5-11 2-41-28-88-42-137-40-6 0-11 0-17 1 0 0-1 0-1 0-2 0-4 1-5 1-5 7-9 15-12 22 0 0 0 0 0 0 0 1-1 2-1 3 0 0 0 0 0 1-1 0-1 1-1 2 0 0-1 1-1 1 0 1 0 1 0 2-1 0-1 1-1 1 0 1 0 1 0 2-1 0-1 1-1 2 0 0 0 0 0 0-4 11-7 23-9 35 0 0 0 0 0 1-1 1-1 1-1 2 0 1 0 2 0 2 0 1 0 1 0 2 0 1 0 1 0 2-1 0-1 1-1 1 0 2 0 3 0 4 0 0 0 0 0 0 0 2 0 4 0 7 0 0 0 0 0 0-1 5-1 10-1 14 0 2 0 3 0 4 0 2 1 4 1 6 0 1 0 1 0 2 0 1 0 3 0 5 0 0 0 0 0 1 1 2 1 3 1 5 0 0 0 0 0 0 2 15 5 29 10 43 0 0 1 0 1 1 0 1 1 2 1 4 1 0 1 1 1 2 0 0 1 1 1 2 32 75 107 126 193 123 1 0 3 0 4-1 1 0 1 0 1 0 2 0 3 0 4 0 0 0 1 0 1 0 9-1 19-2 29-5 0 0 1 0 1 0 7-2 15-4 22-7 9-25 13-52 12-79-3-62-29-118-76-159-3-3-3-8 0-11 2-4 8-4 11-1 24 21 43 47 57 75 15 30 23 62 24 96 1 30-4 59-14 88z m-283-110c0 0 0 0 0 0 0-2-1-3-2-5 0 0 0-1-1-2 0-1 0-2-1-3-6-15-10-32-12-49 0 0 0-1 0-1 0-2-1-3-1-5 0-1 0-1 0-1 0-2 0-4 0-5 0-1 0-1 0-2-1-2-1-4-1-6 0-1 0-3 0-4-6 3-13 6-18 9l-13 63c-1 4-6 7-10 6-4-1-7-5-6-9l10-48c-34 23-51 46-51 46-3 4-8 5-12 2-3-3-4-8-1-11 1-2 35-48 102-76 0-2 0-4 0-6 0 0 0 0 0 0 0-2 0-4 1-7 0 0 0 0 0-1 0-2 0-4 1-6 0 0 0 0 0-1 0-2 1-4 1-6 0 0 0 0 0-1 0-2 1-4 1-6 0 0 0 0 0 0 1-2 1-4 2-6 0 0 0-1 0-1 1-2 1-4 2-6 0 0 0-1 0-1 1-2 1-4 2-6 0 0 0 0 0-1 1-2 1-4 2-5 0-1 0-1 0-1 1-2 2-4 3-6 0 0 0 0 0-1 1-2 1-3 2-5 0-1 1-1 1-1 1-2 1-4 2-6 0 0 1 0 1-1 1-1 2-3 2-5 1 0 1 0 1 0-72 14-136 59-172 124-23 44-31 93-34 125 0 4 0 7 0 10 1 10 2 20 3 29 4 0 8 0 12 0 1-1 3-1 4-1 1 0 2 0 3 0 1 0 2 0 3 0 53-6 92-19 119-33 38-18 58-39 65-47-3-7-7-13-10-20z m19 34c-13 15-45 43-103 63 17 39 54 65 97 66 0 0 0 0 0 0 1 0 3 0 4 0 1 0 3 0 4 0 2 0 3 0 4 0 1 0 1 0 2 0 1 0 2 0 3-1 1 0 1 0 1 0 2 0 3 0 4 0 1 0 1-1 2-1 1 0 2 0 2 0 1 0 2 0 2 0 1-1 3-1 4-1 0-1 1-1 2-1 1 0 1 0 1 0 17-5 33-15 46-27 0 0 0 0 0 0 2-2 4-4 6-7 0 0 1 0 1-1 1 0 1-1 2-2 0 0 0-1 1-1 0-1 1-2 2-2 0-1 1-2 1-3 1 0 1-1 1-1 1-1 1-2 2-2 0-1 0-1 0-2 1 0 1 0 1 0-37-16-69-43-92-77z m14-211c2-3 5-5 7-5 2 0 3 1 4 1 25 14 47 29 65 44 1 0 1 0 1 1 0 0 0 0 1 0 24 21 43 41 57 60 1 0 1 0 1 0l43 8c4 0 7 5 6 9-1 4-5 7-9 6l-27-4c26 38 35 67 36 68 1 4-1 9-5 10-5 1-9-1-11-5 0-1-23-71-95-134-8 14-23 47-16 89 1 4-2 8-7 9-4 1-8-2-9-7-8-49 10-87 19-101-17-14-36-27-57-38-4-2-6-7-4-11z m-15 311c-32-3-51-19-62-32-3-4-2-9 1-11 2-2 4-2 5-2 3 0 5 1 7 3 12 15 29 24 50 25 5 1 8 5 8 9-1 5-5 8-9 8z"/>
<glyph glyph-name="mushrooms" unicode="&#108;" d="M512 233c-4 39-22 75-51 101-29 27-67 41-107 41-3 0-6 0-9 0-33 56-94 91-160 91-46 0-91-17-125-48-34-31-55-74-60-119-1-7 2-15 7-20 4-5 11-8 19-8l89 0 0-26c0-16-1-32-3-48-2-17-5-33-8-49-6-25 0-51 16-71 16-20 40-31 65-31 46 0 84 37 84 83 0 7-1 13-2 19-5 20-8 40-9 59l43 0 0-15c0-12-1-23-2-35-1-11-3-23-6-34-4-19 0-38 12-53 12-16 30-24 49-24 35 0 63 28 63 63 0 4 0 9-2 14-5 22-7 46-7 69l0 15 81 0c6 0 13 3 17 8 4 5 7 11 6 18z m-486 57c-3 0-5 1-5 2-1 1-2 2-2 5 4 41 23 79 54 107 31 28 71 43 112 43 57 0 109-28 140-75-29-5-56-18-77-38-14-13-26-28-35-44z m159-225c-20 0-38 9-50 24-13 16-17 36-13 55 4 17 7 34 9 50 2 17 3 34 3 51l0 26 71 0c-4-13-7-25-8-38-1-7 1-13 5-18 5-5 11-8 18-8l19 0c1-21 5-42 9-63 1-5 2-10 2-15 0-35-29-64-65-64z m169 0c-13 0-26 6-34 16-8 11-12 24-9 37 3 12 5 25 7 37 1 12 2 25 2 37l0 15 69 0 0-15c0-25 2-50 8-74 1-3 1-6 1-9 0-25-20-44-44-44z m138 163c0-1-2-2-3-2l-269 0c-2 0-3 1-4 2 0 0-1 1-1 3 4 34 20 66 45 89 26 23 59 36 94 36 35 0 68-13 94-36 26-23 42-55 45-89 0-2-1-3-1-3z"/>
<glyph glyph-name="onion" unicode="&#109;" d="M512 219c0 41-32 80-87 106-112 61-134 160-134 161l-1 7-68 0-1-7c0-1-21-100-134-161-55-26-87-65-87-106 0-70 90-126 220-136 5-1 10-1 14-1l-41-7c-5-1-8-6-8-10 1-5 5-8 9-8 1 0 1 0 2 0l33 6-16-16c-4-4-4-9 0-13 1-2 4-2 6-2 2 0 4 0 6 2l22 22 0-28c0-5 4-9 9-9 5 0 9 4 9 9l0 28 22-22c2-2 4-2 6-2 2 0 5 0 6 2 4 4 4 9 0 13l-16 16 33-7c1 0 1 0 2 0 4 0 8 3 8 7 1 5-2 10-6 11l-39 7c3 1 7 1 11 1 129 7 220 64 220 137z m-256 201c3-17 7-37 14-61 4-15 9-29 13-41 3-7 5-10 7-15 1-4 4-9 9-21 7-17 11-41 10-68-2-64-28-108-52-115-1 0-2 0-3 0-24 7-50 51-51 115-1 27 2 51 10 68 5 12 7 17 9 21 2 5 3 8 6 15 5 12 10 26 14 41 6 24 11 44 14 61z m71-206c0 30-4 55-12 75-5 12-7 17-9 21-2 5-3 7-6 15-5 11-9 24-13 39-6 23-10 42-14 58 12-27 32-64 64-95 7-8 10-10 15-15 4-4 10-9 21-20 18-17 26-39 24-64-3-53-49-98-100-119 17 25 28 62 30 105z m-102 150c-4-15-9-28-13-39-3-8-4-10-6-15-2-4-5-9-9-21-9-20-13-45-12-75 1-42 13-80 30-105-51 22-97 66-100 119-2 25 6 47 24 64 11 11 17 16 21 20 5 5 8 7 15 15 31 31 51 66 63 92-3-15-8-34-13-55z m192-54l1 0c48-24 76-57 76-91 0-56-70-103-170-116 47 26 87 71 91 124 2 30-8 57-29 77-12 12-18 17-22 21-5 5-8 7-15 14-39 39-59 85-67 109-4 12-8 21-11 27l5 0c7-25 37-110 141-165z m-399-91c0 34 28 67 77 91 104 55 134 140 141 165l5 0c-3-6-7-15-11-27-8-24-28-70-67-109-7-7-10-9-15-14-4-4-10-9-22-21-21-20-31-47-29-77 4-52 42-96 88-123-99 16-167 62-167 115z"/>
<glyph glyph-name="onion-rings" unicode="&#110;" d="M448 345c-32 37-77 64-127 76-20 5-34 22-34 43l0 9c0 10 9 19 20 19l8 0c6 0 10 5 10 10 0 6-4 10-10 10l-8 0c-18 0-34-13-38-30l-3 0 0 20c0 6-5 10-10 10-5 0-10-4-10-10l0-20-3 0c-4 17-20 30-38 30l-8 0c-6 0-10-4-10-10 0-5 4-10 10-10l8 0c11 0 20-9 20-19l0-9c0-21-14-38-34-43-50-12-95-39-127-76-33-37-50-83-50-131 0-57 25-111 71-152 46-40 107-62 171-62 64 0 125 22 171 62 46 41 71 95 71 152 0 48-17 94-50 131z m-192-325c-123 0-223 87-223 194 0 87 67 164 163 188 28 7 48 32 48 61l24 0c0-29 20-54 48-61 96-24 163-101 163-188 0-107-100-194-223-194z m135 315c-36 31-84 49-135 49-51 0-99-18-135-49-36-32-57-75-57-121 0-45 21-88 57-120 36-32 84-49 135-49 51 0 99 17 135 49 36 32 57 75 57 120 0 46-21 89-57 121z m-135-271c-95 0-172 68-172 150 0 83 77 150 172 150 95 0 172-67 172-150 0-82-77-150-172-150z m107 207c-3 5-10 6-14 3-5-3-6-9-3-14 10-14 15-30 15-46 0-50-47-91-105-91-58 0-105 41-105 91 0 50 47 91 105 91 19 0 38-4 54-13 5-3 11-1 14 4 2 5 0 11-4 13-20 11-42 16-64 16-69 0-124-50-124-111 0-61 55-110 124-110 69 0 124 49 124 110 0 20-6 40-17 57z m-19 14c0 1 0 1 0 2 0 1-1 1-1 2 0 0-1 1-1 1-1 1-1 1-2 1 0 1-1 1-1 1-1 1-2 1-2 1-2 0-3 0-4 0-1 0-1 0-2-1-1 0-1 0-2-1 0 0-1 0-1-1-1 0-1-1-1-1-1-1-1-1-1-2-1-1-1-1-1-2 0 0 0-1 0-2 0 0 0-1 0-2 0 0 0-1 1-2 0 0 0-1 1-1 0-1 0-1 1-2 0 0 1-1 1-1 1 0 1-1 2-1 1 0 1 0 2 0 0-1 1-1 2-1 0 0 1 0 2 1 0 0 1 0 2 0 0 0 1 1 1 1 1 0 1 1 2 1 0 1 1 1 1 2 0 0 1 1 1 1 0 1 0 2 0 2 1 1 1 2 1 2 0 1 0 2-1 2z m-88-19c-32 0-57-23-57-52 0-28 25-51 57-51 32 0 57 23 57 51 0 29-25 52-57 52z m0-84c-21 0-38 15-38 32 0 18 17 32 38 32 21 0 38-14 38-32 0-17-17-32-38-32z"/>
<glyph glyph-name="pea" unicode="&#111;" d="M494 485c-1 2-1 3-1 4 3 9-1 14-3 17-7 8-18 6-22 5 0 0-1 0-1 0-2-1-3-2-5-2-12-4-23-10-33-16l-1 0c-16 12-35 19-56 19-51 0-93-42-93-93 0 0 0 0 0 0-40-9-70-43-72-85-44-5-79-41-82-86-2 1-5 1-7 1-51 0-93-42-93-93 0-16 4-31 11-44-1-1-1-2-2-3-1-2-2-3-3-4-1-2-3-4-4-5 0-1-1-2-2-3-2-3-3-5-5-7 0-1 0-1-1-2-1-2-2-4-3-5 0 0-1-1-1-1 0 0 0 0 0 0-1-2-3-4-4-6l0-1c-4-3-5-7-3-12 1-3 3-6 8-12 32-34 71-51 112-51 38 0 77 14 114 42 124 94 230 250 231 252 50 80 28 164 21 191z m-43-18c-1 1-1 2-2 3-1 1-2 3-3 5-1 0-1 1-1 1 4 2 8 4 12 6-2-5-4-10-6-15z m-79 23c18 0 36-8 48-20 1-1 2-2 3-3 1-1 3-3 4-5 1-1 2-2 2-3 2-1 3-3 4-5 0-1 1-2 1-3 2-3 3-6 4-10-5-11-12-21-18-32 0 0-1-1-2-3 0 0-1 0-1-1 0 0-1-1-1-2-1 0-1-1-2-2 0-1-1-2-2-3 0-1-1-2-2-3 0-1-1-2-2-3-1-2-2-3-3-4-1-1-2-3-3-4-1-2-2-3-3-5-1-1-2-3-3-5-1-1-2-3-3-4-2-2-3-4-5-6 0-1-1-2-2-3 0 0-1 1-1 2 0 0 0 1-1 1 0 2-1 5-2 7-1 1-2 3-3 4 0 0 0 0 0 0 0 0 0 0 0 0 0 0 0 1 0 1 0 0 0 0 0 0 0 0-1 0-1 0 0 1 0 1 0 1-1 2-2 3-2 4-2 2-3 4-5 5 0 1 0 1 0 1 0 0 0 0 0 0 0 0 0 0-1 0 0 0 0 1 0 1 0 0 0 0 0 0 0 0-1 1-1 1-1 1-1 2-2 3-2 1-4 3-5 5-1 0-2 1-3 2 0 0 0 0 0 0-1 1-2 2-4 3-1 1-2 2-4 3 0 0 0 0 0 0 0 0 0 0 0 1-1 0-1 0-1 0 0 0 0 0 0 0-1 0-1 0-1 1-1 0-3 1-4 2-2 1-4 2-6 3 0 0 0 0-1 0 0 0 0 0 0 0 0 1 0 1 0 1-1 0-1 0-1 0-1 0-2 1-2 1-1 0-2 1-2 1-1 0-2 1-3 1-1 0-2 0-2 1-1 0-2 0-4 1l0 0c0 0 0 0 0 0 0 0 0 0 0 0-2 0-5 1-8 2-1 0-1 0-2 0-4 0-7 1-11 1-1 0-1 0-2 0 1 38 32 69 71 69z m-80-91c2 0 5 0 7 0 8 0 16-2 23-4 1-1 3-1 4-2 3-1 5-2 8-3 1-1 1-1 2-2 3-2 6-4 9-6 0 0 0-1 1-1 3-3 6-5 8-9 0 0 0 0 1 0 2-3 4-6 5-9 1-1 2-3 2-4 1-2 2-4 3-7 1-1 1-3 2-4 0-2 1-5 1-7 0-1 1-2 1-3 0-1 0-1-1-1-1-2-2-3-3-5-4-5-8-10-12-14-2-3-4-6-6-8-3-4-6-8-9-12-2-3-5-6-7-8-3-4-6-8-9-11-2-3-5-6-7-8-2-3-5-6-7-9-1 5-2 10-4 14 0 0 0 0 0 0-2 4-4 9-6 13 0 0-1 0-1 0-4 8-10 15-16 21-1 1-1 1-2 1-3 3-7 6-10 8 0 0 0 0 0 0-4 3-7 5-11 7-1 0-2 0-2 1-4 1-8 3-12 4-1 0-1 0-2 1-4 1-8 1-12 2 0 0-1 0-1 0 3 34 29 61 63 65z m-145-155c1 38 32 69 71 69 0 0 0 0 0 0 0 0 0 0 0 0 4 0 8-1 12-1 0 0 1-1 1-1 2 0 3 0 5-1 1 0 1 0 2 0 1-1 3-1 4-2 1 0 2 0 2-1 2 0 3-1 4-1 1-1 2-1 2-1 2-1 3-2 4-3 1 0 1 0 2-1 1-1 3-2 4-2 0-1 1-1 1-2 2-1 3-2 4-3 0 0 1-1 1-1 1-1 3-2 4-4 0 0 0 0 1-1 1-1 2-2 3-4 0 0 1 0 1-1 1-1 2-3 3-4 0-1 0-1 0-1 1-2 2-4 3-5 0-1 0-1 0-1 1-2 2-4 3-6 0 0 0 0 0 0 2-6 3-13 4-20 0 0 0 0 0 0 0-1 0-2 0-4 0-1 0-1 0-2-23-26-47-49-69-68-2 0-5 0-7 0-1 0-2 0-3 0 0 0 0 0 0 0 0 1 0 1 0 1-1 4-2 8-3 11 0 1 0 1 0 1-1 4-3 7-4 10 0 1-1 2-2 3-1 2-2 4-3 6-1 1-1 3-2 4-2 2-4 5-6 7-1 2-2 3-4 4-1 2-2 3-3 4-2 2-3 3-4 4-2 2-4 3-7 5-1 0-2 1-3 2-3 2-5 3-8 5-1 0-2 0-3 1-3 1-6 3-10 4 0 0 0 0 0 0z m-29-17c5 0 11-1 16-2 0 0 0 0 0 0 7-2 13-5 20-8 0-1 1-1 1-1 3-2 6-4 8-6 1 0 1-1 2-1 1-2 3-4 5-5 0-1 1-2 2-3 2-2 3-4 5-7 0 0 1-1 1-2 2-3 3-5 5-8 0 0 0 0 0 0 1-4 2-7 3-10 0-1 0-1 0-1 1-4 2-7 2-11 0 0 0 0 0 0 0-2 0-4 0-6 0-3 0-7 0-10-11-8-22-16-33-23-2-1-4-2-6-4-2-1-5-2-7-4-2-1-5-2-7-3 0 0 0 0 0 0-2-2-4-3-7-4-2-1-5-2-7-3 0 0 0 0 0 0l0 0c0 0 0 0 0 0-3-2-6-3-9-4 0 0 0 0 0 0-2-1-4-2-5-2-3-1-6-3-9-3-2-1-3-1-4-2l0 0c-3 0-5-1-7-1-1 0-3 1-5 2-1 1-2 2-3 2-1 1-2 2-3 3-2 1-3 2-5 3-4 4-9 9-12 15 0 0-1 0-1 0-7 11-11 24-11 38 0 39 32 71 71 71z m-68-134c0 0 0 0 1-1 1-1 3-3 4-4-2-1-5-1-10-1 2 2 3 4 5 6z m404 213c-1-2-105-154-226-246-68-52-142-50-193 4 0 0 1 0 1 0 10 0 19 1 22 2 9 0 19 1 30 4 0 0 1 0 1 0 0 0 0 0 0 0 5 1 10 3 15 4 0 0 1 0 1 0 1 1 3 1 5 2 3 1 6 3 10 4 0 0 0 0 0 0 2 1 4 2 6 3 3 1 6 2 9 4 0 0 1 0 1 0 1 1 3 2 5 3 1 0 3 1 4 2 1 0 1 0 1 0 0 0 0 0 0 0 1 1 3 2 4 3 0 0 1 0 1 0 0 0 0 0 0 0 1 1 3 2 5 3 1 0 2 1 4 2 0 0 1 1 1 1 0 0 0 0 0 0 1 1 2 1 4 2 0 0 0 0 0 0 0 1 1 1 2 1 0 1 1 1 2 1 3 3 6 5 10 7 3 2 6 5 10 7 0 0 0 0 0 1 79 55 144 133 197 204 1 1 2 2 3 3 0 0 0 0 0 1 0 0 0 0 0 0 1 1 2 2 3 4 0 0 0 0 0 0 0 0 1 0 1 0 30 41 63 85 82 136 8-32 19-99-21-162z"/>
<glyph glyph-name="pickles" unicode="&#112;" d="M180 273c5 0 8 3 8 9 0 5-3 8-8 8-5 0-9-3-9-8 0-6 4-9 9-9z m-9-17c-5 0-8-3-8-9 0-5 3-8 8-8 5 0 9 3 9 8 0 6-4 9-9 9z m17-51c-5 0-8-4-8-9 0-5 3-8 8-8 5 0 9 3 9 8 0 5-4 9-9 9z m-25-26c-5 0-9-3-9-8 0-5 4-9 9-9 5 0 8 4 8 9 0 5-3 8-8 8z m108 39c-4 1-9 0-11-5-2-4 0-9 4-11 4-1 10 0 11 5 2 4 0 9-4 11z m22 27c-4 2-9 0-11-4-2-5 0-10 4-11 5-2 10 0 11 4 2 4 0 9-4 11z m7 53c-4 2-9 0-11-4-2-5 0-10 4-12 4-1 10 0 11 5 2 4 0 9-4 11z m43-168c-4-3-4-9 0-12 3-4 8-4 12 0 3 3 3 8 0 12-4 3-9 3-12 0z m-30-18c-4-4-4-9 0-12 3-4 8-4 12 0 3 3 3 8 0 12-4 3-9 3-12 0z m-24-48c-3-3-3-9 0-12 3-3 8-3 12 0 3 3 3 9 0 12-4 3-9 3-12 0z m-37 0c-3-3-3-9 0-12 4-3 9-3 12 0 4 3 4 9 0 12-3 3-8 3-12 0z m161 363c-8 7-12 18-12 29l0 5 8 0c5 0 9 3 9 8 0 5-4 9-9 9l-8 0 0 8c0 15-11 26-26 26l-239 0c-13 0-25-12-25-26l0-8-9 0c-5 0-8-4-8-9 0-5 3-8 8-8l9 0 0-5c0-11-5-22-12-29-7-7-11-17-11-26 0-9 4-19 11-26 3-3 7-5 12-7l0-325c0-24 18-43 42-43l205 0c11 0 21 5 30 13 8 7 13 19 13 30l0 325c4 2 8 4 12 7 14 15 14 37 0 52z m-284 59c0 6 4 9 8 9l238 0c5 0 9-3 9-9l0-8-255 0z m76-264c0 0 0 0 0 0-1-21-5-41-13-61-1 1-2 1-4 1-5 0-8-3-8-8 0-5 2-8 6-9l-5-12c-5-8-12-14-22-14-7 0-14 6-19 12-4 6-5 14-1 21 7 17 12 35 14 53 0 0 1 0 1 0 5 0 9 3 9 8 0 5-4 9-8 9 0 20-2 40-7 60 4 1 6 4 6 8 0 5-3 9-8 9-1 0-2 0-3-1-1 4-3 8-4 12-4 7-3 14 1 21 5 7 12 10 19 10 10 0 17-5 22-13l10-25c9-20 13-42 14-64 0 0 0 0 0 0-5 0-8-3-8-9 0-5 3-8 8-8z m-77-51l0 118c12-38 12-79 0-118z m0-128l0 75c7-10 19-16 31-16 16 0 30 10 37 24l10 26c22 50 22 107 0 158l-10 25c-6 14-21 23-37 23-12 0-24-5-31-15l0 25c1 1 3 1 4 2 0 0 0 0 1 0 0 0 0 1 0 1 1 0 2 1 3 2 0 0 0 0 0 0 1 0 1 0 1 0 0 1 1 1 1 1 0 0 0 0 0 0 1 1 1 1 2 1l5 6c4 4 13 4 17 0l5-6c11-11 30-11 41 0l5 6c4 4 13 4 17 0l5-6c0 0 0 0 0 0 1 0 1 0 1 0 2-2 3-3 4-4 1 0 1 0 1 0 0 0 0 0 0 0 5-3 10-4 15-4 5 0 10 1 14 4 0 0 0 0 1 0 0 0 0 0 0 0 1 1 3 2 4 4 1 0 1 0 1 0l5 6c5 4 13 4 17 0l5-6c12-11 30-11 41 0l6 6c4 4 12 4 17 0l5-6c3-3 7-5 12-7l0-29c-4 11-11 19-21 24-14 6-31 4-43-6l-21-18c-41-36-66-88-68-143l-1-26c-1-16 9-31 23-38 5-2 11-4 17-4 7 0 14 2 19 6 12 7 19 19 20 32 2 51 25 98 63 131 5 5 9 11 12 17l0-118c-9 6-21 9-32 7-13-2-24-11-29-24-19-47-56-83-102-102-12-5-22-16-24-29-2-11 0-22 7-31l-51 0c-14 0-25 11-25 26z m233 267c0 0 0 1 0 1-5 1-10 0-11-5-1-2-1-5 0-7-10-9-18-20-26-32 0 1 0 1-1 1-4 2-9 0-11-4-2-4 0-9 4-11-10-18-16-37-20-57-4 1-8-1-10-5-1-4 0-9 5-11 1 0 1 0 2-1 0-4 0-8-1-12 0-7-4-14-11-19-7-4-14-4-21 0-9 3-13 12-13 21l0 26c1 23 6 44 15 65 0 0 0-1 1-1 4-1 9 0 11 5 2 4 0 9-4 11 10 18 23 35 38 49 1-1 2-2 4-2 4-2 9 0 11 4 1 3 1 7-2 9l10 9c4 4 10 6 15 6 4 0 7-1 10-2 6-3 11-10 12-18 1-7-1-15-7-20z m-25-234c-3 3-8 3-11 0-3-3-4-8-1-12-15-14-33-25-52-33-1 1-1 2-2 2-3 4-8 4-12 0-2-2-3-6-2-9l-11-4c-9-4-18-2-25 5-5 5-8 13-6 20 2 8 6 14 14 16 17 8 33 17 48 28 0 0 1-1 1-1 3-4 9-4 12 0 3 3 3 8 0 12 0 0 0 0 0 0 14 14 27 30 38 47 3-2 7-1 10 1 3 4 3 9 0 12-1 1-2 2-3 2 2 4 4 7 5 11 3 7 9 12 17 14 1 1 3 1 5 1 6 0 12-3 16-6 7-7 8-16 5-25l-10-25c-9-21-21-40-36-56z m40-51c-4-5-11-8-18-8l-74 0c44 21 80 57 100 102l0-76c0-7-3-13-8-18z m25 362c-5-4-13-4-17 0l-5 6c-6 6-13 8-21 8-8 0-15-2-20-8l-6-6c-4-4-12-4-17 0l-5 6c-11 11-30 11-41 0l-5-6c-4-4-13-4-17 0l-5 6c-11 11-30 11-41 0l-5-6c-4-4-13-4-17 0l-5 6c-11 11-30 11-41 0l-5-6c-2-1-3-2-5-2-4-1-9 0-12 2-4 4-6 9-6 14 0 5 3 10 6 14 12 11 18 25 18 41l0 5 255 0 0-5c0-16 6-30 17-41 7-8 7-20 0-28z"/>
<glyph glyph-name="portobello" unicode="&#113;" d="M62 389c16-21 46-26 67-10l1 1c3 3 8 8 12 11 8-12 12-22 11-29 0-2-1-13 7-21 3-3 8-6 15-6 2 0 3 0 4 0 3 0 6 1 8 3l31 23c2 2 4 4 5 7 4 9 2 16 0 20-6 10-17 12-19 12-6 1-15 9-24 19 4 3 9 6 12 8l2 1c10 8 17 19 18 31 2 13-1 26-9 36-15 18-37 22-64 11l0 0c-27-11-51-29-70-53-16-23-18-44-8-63z m24 52c16 20 37 35 61 45 24 10 34 3 39-4 5-6 6-12 5-20-1-6-4-12-9-17-5-2-25-14-27-21l-1-5 3-4c8-12 24-32 44-36 1 0 3-1 3-1 0 0 0 0 0-1l-29-21c0 0 0 0 0 0-1 1-1 2-1 4 2 19-12 41-21 52l-4 4-4 0c0 0-1 0-1 0-8 0-25-16-29-20-11-8-27-6-36 5-2 5-8 17 7 40z m174-31l1-1c5-1 12-4 18-6-8-14-16-24-23-27-1-1-13-6-16-17-2-5-2-12 4-21 2-2 4-4 7-5l38-18c2-1 4-1 7-1 0 0 1 0 1 0 11 1 16 6 19 10 6 10 2 22 2 23-2 7 0 20 6 35 5-3 11-6 15-8l1-1c13-6 27-7 39-2 13 5 24 14 30 27 9 24 1 46-23 66l0 0c-25 20-55 34-87 40-30 3-51-6-64-25l0-1c-6-13-7-27-2-39 5-13 14-23 27-29z m-6 58c7 12 22 17 42 15 28-5 54-17 76-35 22-19 20-32 17-41-3-8-9-13-17-16-7-3-15-2-22 1-5 3-26 16-34 14l-5-1-2-5c-7-14-18-40-11-60 0-1 1-4 0-4 0 0 0-1-2-1l-35 16c-1 1-1 2-1 2 0 1 2 2 4 3 19 8 32 33 38 48l2 4-2 4c-4 8-28 16-34 17-7 4-12 10-15 17-3 7-2 15 1 22z m247-152c-6 23-23 36-52 39l0 0c-30 3-59-2-87-14-25-13-37-31-36-52l0-2c4-26 29-44 55-39l2 0c4 2 10 3 15 4 2-14 1-25-3-31-1-1-7-11-4-21 1-5 5-11 14-15 2 0 4-1 6-1 1 0 2 0 3 1l38 6c2 0 5 1 7 3 8 7 10 14 9 18 0 11-9 18-10 19-6 5-10 15-13 29 5 0 10 1 14 1l1 0 1 0c13 2 24 9 31 19 8 11 11 23 9 36z m-26-23c-4-6-10-10-16-11-6 0-29-1-34-7l-3-4 0-4c2-15 7-40 23-53 1 0 2-2 2-2 0 0 0 0 0-1l-35-5c-1 0-1 0-1 0 0 1 1 2 1 3 11 17 8 43 5 57l-1 5-4 2c-7 4-30-3-35-4-7-1-14 0-19 4-6 4-10 10-11 17 0 5 1 19 25 32 23 10 49 15 75 12 25-2 31-13 33-22 1-7-1-14-5-19z m-291-225c-6 0-16 7-26 17 4 3 9 6 12 8l1 2c20 17 21 47 3 67-17 17-38 18-65 5l0 0c-26-14-48-34-64-59-14-25-15-46-2-64l0-1c9-9 21-15 33-15 13-1 25 3 35 12l1 1c3 4 7 8 11 12 9-11 14-21 14-28 0-2 0-13 8-20 3-3 8-5 14-5 2 0 4 0 6 1 3 0 6 2 8 3l28 26c2 2 4 5 5 7 3 10 0 17-2 21-7 9-18 10-20 10z m2-23l-26-24c-1 0-1 0-1 0 0 1-1 2-1 4 0 19-16 39-26 50l-4 3-5 0c-8-1-23-18-27-23-5-4-12-7-18-6-7 0-14 3-18 8-3 5-10 16 3 40 14 22 33 39 56 51 23 12 34 6 40 0 5-5 7-12 7-19-1-7-4-14-8-18-5-3-24-17-25-24l-1-5 3-4c10-11 28-30 48-31 1 0 3-1 3-1 0 0 0 0 0-1z m160 135l1 1c10 19 8 40-9 64-18 23-42 41-69 52l0 0c-27 11-49 7-65-11-7-10-10-23-9-36 2-12 9-23 19-31l2-1c3-2 8-5 12-8-9-11-18-18-24-19-3 0-14-2-19-12-2-4-4-11 0-20 1-3 3-5 5-7l31-23c2-2 5-3 8-3 1 0 2 0 3 0 8 0 13 3 16 6 8 8 7 19 7 21-1 7 3 17 11 29 4-3 9-8 12-11l1-1c10-7 23-11 36-9 12 2 23 9 31 19z m-17 12c-5-5-11-9-17-10-7-1-14 1-20 5-4 4-21 20-29 20l-5 0-3-4c-9-11-24-33-22-53 1 0 0-2 0-3 0 0 0 0-1 0l-28 21c0 1 0 1 0 1 0 0 2 1 3 1 19 4 36 24 44 36l3 4-1 5c-2 7-22 19-27 21-5 5-9 11-10 17-1 7 1 14 5 20 6 7 16 14 40 4 24-10 45-25 60-45 16-23 10-35 8-40z m-261 36l1 1c2 1 5 3 8 4 4-9 5-16 4-21-1-1-4-11 1-19 3-4 7-8 16-9 1 0 1 0 2 0 2 0 4 0 6 1l28 13c3 1 5 3 6 5 5 8 5 14 4 18-3 10-12 13-14 14-4 2-9 8-14 16 4 2 7 3 10 4l2 0c20 10 29 34 19 54l0 2c-10 15-27 22-51 19-24-4-46-14-65-30l0 0c-19-16-25-33-17-52 9-21 33-29 54-20z m53-12l-20-10c4 13 0 27-5 39 5-12 14-24 25-29z m-88 40c-2 7-3 15 12 28 16 13 35 22 54 25 21 2 27-6 29-9 4-9 0-20-9-25-4-1-23-7-26-14l-2-4-1-1-5 2c-7 2-23-8-27-11-9-4-21 0-25 9z m404-118c-19 14-42 23-66 25l0 0c-25 3-42-5-50-23-4-11-4-22 1-32 4-10 12-17 22-21l2-1c2 0 6-1 9-2-4-9-9-15-13-17-2-1-11-5-13-15-1-4-1-11 5-18 1-2 3-3 6-4l29-12c2 0 4-1 5-1 1 0 2 0 3 1 9 1 13 6 15 10 5 8 1 17 1 19-2 4-1 12 2 21 3-1 6-3 9-4l1-1c10-4 22-4 32 1 9 4 17 12 21 22l0 1c5 18-2 35-21 51z m-64-98l-21 8c11 6 19 19 24 31-5-12-8-27-3-39z m65 53c-2-4-5-8-10-10-5-2-10-2-14 0-5 2-22 11-29 9l-4-2-3 5c-4 6-22 11-27 12-4 2-8 5-10 10-2 5-2 10-1 14 3 7 9 13 29 11 20-2 39-10 55-21 16-14 15-24 14-28z"/>
<glyph glyph-name="potatoes" unicode="&#114;" d="M406 380c-24 14-53 21-83 21-52 0-97-22-122-54-15 5-31 8-48 8-41 0-79-16-104-44-31-21-49-53-49-88 0-61 58-112 130-112 32 0 64 11 88 30 13 7 25 15 35 24 28-21 65-34 105-34 85 0 154 57 154 128 0 55-43 104-106 121z m-173-196c-8-7-17-14-28-19-1 0-2-1-3-2-20-16-45-24-72-24-57 0-103 38-103 84 0 26 14 50 38 66 1 1 2 2 3 3 20 22 52 35 85 35 12 0 23-1 34-4 9-3 17-6 25-10 28-16 47-42 47-72 0-12-3-24-9-34-4-8-10-16-17-23z m125-26c-33 0-65 11-88 29 11 16 16 34 16 54 0 39-23 74-59 95 21 22 56 37 96 37 26 0 50-6 71-18 1 0 2-1 3-1 52-14 88-52 88-95 0-56-57-101-127-101z m-220 45c-9 0-16-6-16-14 0-8 7-14 16-14 9 0 17 6 17 14 0 8-8 14-17 14z m-61 29c-9 0-17-6-17-14 0-8 8-14 17-14 10 0 17 6 17 14 0 8-7 14-17 14z m65 10c0 7-7 14-16 14-9 0-16-7-16-14 0-8 7-14 16-14 9 0 16 6 16 14z m231-10c-2 0-4-1-7-1-10-4-16-13-13-22 2-6 8-10 16-10 2 0 5 0 7 1 11 3 17 13 14 21-2 7-9 11-17 11z m58 38c-4 0-8-1-11-4-4-2-6-6-7-10-1-4 0-8 3-11 2-3 6-5 10-5 4 0 8 2 11 4 7 6 9 16 4 22-2 3-6 4-10 4z m-47 36c-4 0-7 0-11-2-4-2-8-5-10-9-2-4-3-8-1-12 2-4 6-6 12-6 4 0 7 1 11 2 4 2 8 5 10 9 2 4 3 8 1 12-2 4-6 6-12 6z"/>
<glyph glyph-name="radish" unicode="&#115;" d="M375 99c-48 36-115 33-166 6-2-1-1-5 1-4 56 24 106 14 160-9 4-2 9 3 5 7z m28 37c-51 46-132 48-194 24-3-1-2-6 1-5 69 21 125 4 187-27 5-3 11 4 6 8z m9 47c-41 52-126 60-181 30-3-2-1-7 2-6 66 22 117 6 172-33 6-4 11 5 7 9z m-109 178c-11-19-10-44-4-64 2-5 8-3 7 2-4 20 0 39 4 59 1 4-5 7-7 3z m18-71c0 2 0 3 1 4 0 1 0 2 0 2 2 0 5 1 5 5 2 16 7 31 10 46 8-15 27-25 43-17 14 6 22 25 16 38 15-5 31-1 41 11 12 14 11 37-3 49-1 1-2 1-3 1 8 13 4 33-9 41-11 7-29 6-39-3-2 14-11 27-25 29-12 3-25-2-32-11-1 6-3 11-7 16-13 13-36 8-45-7-5 12-18 20-31 17-8-1-15-7-18-15-3-6-3-12-1-18-7 3-14 3-21 2-2 9-11 15-21 14-5-1-10-4-13-8-6 12-18 20-31 20-21 0-35-20-33-40-15 4-31-5-36-19-6-16 1-35 16-42-15-7-22-30-15-45 7-15 25-22 41-17-1-13 9-25 21-26 13-1 24 8 27 20 12-18 27-36 38-55-45-13-85-37-98-76-12-37 4-79 28-108 35-41 115-41 130-95 1-4 6-4 8-1 0 0 0 0 0 0 53 57 168 56 179 148 9 75-54 128-123 140z m4 183c1 0 1 0 2 1 8 7 16 14 27 13 12-2 21-12 23-24 0-1 0-1 0-2-3 2-6 4-10 6-5 3-9-4-4-8 6-4 12-9 19-13 4-2 10 4 6 8-1 0-2 1-3 2 9 7 20 12 30 3 10-8 8-20 4-31-1-3 3-7 6-5 0 0 0 0 0 0 0 0 0 0 1-1 6-10 8-24 2-34-7-12-23-16-35-12 2 3 3 5 4 8 0 5-6 7-8 2-2-6-10-10-16-7-5 2-9-4-4-7 4-3 9-3 14-2 4-10 1-22-9-27-15-8-29 8-33 21-1 3-5 3-6 0-1 0-2 0-3-1-12-16-18-38-17-58-1-2-2-5-3-8-1-1-1-3-1-5-12 1-24 2-37 1 1 25 1 50-2 74 2-1 4-2 6-2 0-9 7-17 17-15 4 1 3 7-1 7-3 0-6 3-5 6 7 0 14 3 19 8 9 9 10 22 5 32 4 1 8 3 11 5 8 6 13 16 12 26-1 12-10 21-20 24 4 4 7 9 9 15z m-92-7c2-2 5 2 3 4-2 3-5 5-8 6-1 10 7 22 16 24 13 4 23-9 23-21 0-5 6-5 8-1 2 0 3 1 4 3 2 12 21 20 31 11 10-11 0-28-11-32-2 0-3-1-3-2-2 3-4 6-6 10-2 3-7 0-6-3 5-12 9-23 16-33 3-4 10-1 8 3-2 6-5 11-8 16 11 2 25-6 25-19 0-7-4-12-10-16-4-2-8-2-12-2-1 0-1 0-1 0-3 2-5 0-6-2-2-2-1-6 1-7 1-1 2-2 4-2 3-7 3-17-4-22-4-2-8-3-13-2-5 1-8 5-14 5-1 0-2-1-2-1-2 0-5-2-5-4-3-28-1-58 2-86-3 0-6 0-10-1 1 28-4 56-12 82-2 5-7 6-10 5-1 0-1 0-2 0-5-2-12-2-17 0-1 2-3 4-5 5-5 5-5 14-2 20 0 1 0 2 0 3 1-1 1-1 2-1 4 0 5 6 1 7-19 3-33 25-23 43 9 17 30 18 46 10z m12-175c-9-1-17-2-25-4-5 20-11 41-22 58 5 2 11 8 14 12 1 2 3 7 3 11 5-1 9 0 13 1 9-25 13-51 17-78z m-83 55c-1 1-3 1-4 0-2 2-6 2-7-2-1-8-9-15-18-14-7 1-12 7-13 14 2-1 5-2 8-2 5 0 6 7 1 8-6 1-10 5-11 11-1 7-13 4-11-3 1-3 3-6 5-8-13-2-27 3-32 15-7 15 3 28 15 36 2 1 2 3 1 4 1 2 1 4-1 6-11 6-19 19-13 32 4 8 13 12 22 13-1-5-1-10 1-14 1-4 6-2 6 2-1 5 0 9 2 12 2 0 2 2 2 4 4 3 8 6 12 8 4 2 2 8-2 8-4 0-8-2-11-5 2 12 12 24 24 23 15 0 24-15 24-28 1-5 9-7 10-1 1 3 1 7 0 10 2 5 6 9 11 9 5 0 8-4 11-8-8-4-15-9-18-17-9-21 5-45 26-51-8-9-8-23-1-32 0 0 1 0 1 0 0-1 0-3 1-5 0-3-1-5-2-8-2-3-3-5-6-7-1-1-2-1-4-2-1 1-2 3-3 4-1 2-5 0-4-3 8-24 20-46 29-69-3-1-6-2-9-3-8 24-21 49-42 63z m223-257c-42-28-88-37-121-76-6 54-83 53-117 83-43 40-55 112 0 147 36 23 90 34 131 34 49 0 99-14 129-54 34-46 24-103-22-134z"/>
<glyph glyph-name="spinach" unicode="&#116;" d="M339 366c-25 81-75 137-77 139l-6 7-6-7c-2-2-52-58-77-139-15-48-18-94-10-138 11-54 39-104 85-149l0-79 16 0 0 79c46 45 74 95 85 149 8 44 5 90-10 138z m-6-135c-9-47-32-90-69-130l0 112 42 43-11 11-31-31 0 92-16 0 0-55-31 31-11-11 42-42 0-75-24 24-11-12 35-35 0-52c-37 40-60 83-69 130-8 41-5 85 9 130 19 62 54 110 68 127 14-17 49-65 68-127 14-45 17-89 9-130z m-85 127l16 0 0-15-16 0z m0 30l16 0 0-15-16 0z"/>
<glyph glyph-name="tomato" unicode="&#117;" d="M408 415l0 0c0 0 0 0 0 0 0 6-2 12-7 15-25 16-72 39-119 20l0 35c0 15-11 27-24 27l-21 0c-13 0-24-12-24-27l0-39c-21 4-67 8-112-19-7-4-9-12-7-19 1-1 1-1 2-2-1 0-2-1-3-1-3 0-5-2-7-3-52-44-82-106-82-171 0-127 113-231 252-231 139 0 252 104 252 231 0 73-36 140-100 184z m-195 12c5-1 10 0 13 3 4 3 6 8 6 12l0 43c0 5 3 8 5 8l21 0c2 0 5-3 5-8l0-40c0-6 2-11 7-13 4-3 10-4 15-2 35 16 72 3 95-10-22 0-40-2-54-5-6-2-11-7-12-13-1-7 2-13 8-16 14-9 23-18 29-27 4-6 7-13 9-19-21 18-44 24-60 26-6 1-10 1-14 1-4 0-8-1-11-4-4-3-5-8-5-12 1-49-16-82-26-97-10 20-13 63-12 98 0 8-6 15-14 16-3 1-5 1-8 1 0 0-1 0-1 0-1 0-3 0-4-1-2 0-4 0-6 0-1 0-2-1-4-1-2 0-4-1-6-2-1 0-2 0-3-1-2 0-5-1-7-2-1 0-2-1-3-1-2-1-4-2-6-3-1-1-3-1-4-2-2-1-4-2-6-4-1 0-2-1-3-1-2-2-4-3-7-4 0-1-1-1-2-2-3-2-5-4-8-6 3 6 7 12 11 17 0 0 0 0 0 1 4 5 8 9 12 13 0 0 0 0 0 0 5 5 10 9 14 13 1 0 1 1 2 1 0 0 1 0 1 1 1 0 2 1 3 2 5 3 8 9 7 15 0 6-4 11-10 13 0 0-1 0-1 1-2 0-5 1-7 2-1 0-3 0-4 1-1 0-1 0-1 0 0 0 0 0 0 0-11 2-24 2-39 0 36 15 70 11 85 8z m43-408c-129 0-233 95-233 212 0 59 27 116 75 156 21 5 43 10 65 13 1 0 2 0 3 0 0-1 1-1 1-1 0 0-1-1-2-2-1-1-2-1-3-2-1-1-2-2-3-3-1-1-2-1-4-3-1-1-2-2-3-3-1-1-2-2-3-3-2-2-4-4-6-6 0-1-1-1-1-1-9-11-18-24-26-41-3-7-1-15 5-19 6-5 14-5 20 0 16 13 47 35 72 34 0-27 1-85 17-110 3-5 8-7 13-8 0 0 0 0 0 0 6 0 10 3 13 7 10 14 33 51 33 109 14-1 42-6 65-28 5-4 12-5 18-2 6 3 10 9 9 16-1 4-2 9-3 14-1 0-1 0-1 1-1 4-3 9-6 14 0 1 0 1-1 2-1 2-3 4-4 6 0 1-1 2-1 2-2 2-3 4-5 5-1 2-1 3-2 4-2 1-3 2-5 4-1 1-2 3-4 4-2 1-3 2-5 4-2 1-4 2-6 4 5 1 11 1 18 2 1 0 1 0 1 0 2 0 3 0 5 0 0 0 1 0 2 0 1 0 3 0 4 1 1 0 3 0 4 0 1 0 2 0 3 0 3 0 6 0 9 0l3-1c3 0 6 0 9-1l2 0c58-41 91-102 91-168 0-117-104-212-233-212z m-194 200c-1 5-6 9-11 8-5-1-9-5-8-11 2-14 6-27 14-39 1-3 5-5 8-5 1 0 3 1 5 1 4 3 6 9 3 13-6 10-10 22-11 33z m-9 29c0 0 0 0 0 0 5 0 9 4 10 9 1 11 3 21 6 31 2 5 0 11-5 12-5 2-11 0-13-5-4-12-6-24-7-37-1-5 3-10 9-10z"/>
<glyph glyph-name="clam" unicode="&#118;" d="M436 437c-48 49-112 75-180 75-68 0-132-26-180-75-48-48-75-112-75-180l0-8c0-26 11-52 31-71l155-150c19-18 43-28 69-28 26 0 50 10 69 28l155 150c20 19 31 45 31 71l0 8c0 68-27 132-75 180z m54-188c0-21-8-41-24-56l-156-151c-30-29-78-29-108 0l-35 34c0 0 0 0 0 0 0 49 40 89 89 89 34 0 65-19 80-50 3-5 9-7 14-4 5 2 7 8 4 13-8 18-22 34-39 45-18 11-38 17-59 17-54 0-99-40-108-92l-57 55c1 90 75 163 165 163 53 0 103-25 134-68 3-5 9-6 14-2 4 3 5 9 2 14-17 23-39 42-64 55-27 14-56 21-86 21-95 0-174-72-184-164l-26 25c-16 15-24 35-24 56l0 8c0 130 105 235 234 235 129 0 234-105 234-235z m-57-47c-1 5-3 10-5 16-3 5-9 7-14 5-5-2-7-8-5-13 2-5 3-9 5-14 1-5 5-7 10-7 1 0 2 0 3 0 5 2 8 8 6 13z"/>
<glyph glyph-name="crab" unicode="&#119;" d="M511 180c-3 5-7 10-12 12l-40 18c-6 2-13 2-19-1-5 3-12 3-17 2l-47-12-7 34c1 0 3 1 4 1l50 21c1 0 4 1 6 1 0 0 1 0 1 0l1-1 48 5c3-2 4-6 6-8 2-4 4-8 8-8 4 0 6 4 6 6 3 5 3 11 1 17-2 5-6 9-12 12l-40 18c-6 2-13 2-19-1-5 2-11 3-17 2l-52-13c-1 0-1-1-2-1l14 10c3 2 6 5 7 9 6 3 9 9 11 15l4 21c22 41 23 77 5 106-20 34-61 48-71 48-5 0-6-3-6-4-1-5 4-7 8-9 10-4 17-10 20-18 6-15 0-31 0-31-2-4-4-4-5-4-6 0-17 14-23 24l-4 7-4-7c-9-15-11-31-6-46 7-25 29-43 40-50-1-1-2-3-2-5l-5-21c0-1 0-1 0-1l-18-13c0 0-1-1-1-1-3 1-6 1-9 1l-110 0c-2 0-3 0-4 0-2 3-4 5-6 6l-18 13c0 1 0 1-1 1l-4 22c-1 2-1 3-2 5 13 9 61 48 34 95l-4 8-4-8c-6-9-17-23-24-23 0 0-2 0-4 3-1 2-7 18-1 31 4 8 10 15 20 19 4 1 10 3 9 8 0 1-1 5-6 5-10 0-52-15-72-48-18-29-16-65 5-106l5-21c1-7 5-12 10-16 2-3 5-6 8-9l16-11c0 0 0-1 0-1-3 2-5 3-8 4l-52 12c-6 2-12 1-17-1-6 3-13 3-19 0l-40-17c-6-3-10-7-12-13-2-5-2-11 1-17 1-3 3-5 6-5 4 0 6 3 8 7 1 3 3 7 5 8l48-4 1 0 1 1c0 0 1 0 1 0 2 0 4-1 6-1l50-21c3-1 6-1 9-1l-9-35-50 13c-5 1-12 0-17-2-6 3-13 3-19 1l-40-18c-5-3-10-7-12-13-2-5-1-11 1-17 2-3 4-5 6-5 5 0 6 4 8 8 2 2 3 6 6 8l48-5 0 0 1 1c0 0 1 0 1 0 3 0 5-1 6-1l50-21c2 0 3-1 5-1 2-5 6-12 10-19l-30-18c-6-3-9-8-11-14-7-2-12-7-14-13l-16-41c-2-5-2-11 0-16 3-6 7-10 13-12 1-1 3-1 4-1 3 0 5 2 5 2 2 3 1 6 0 11-1 2-3 6-2 9l37 31 0 0 0 1c0 1 1 1 1 1 1 1 3 2 5 3l40 17c15-15 28-23 39-23l95 0c9 0 18 6 29 16l38-16c3-1 4-2 6-3 0-1 0-1 1-1l0-1 37-32c1-2-1-6-2-9-1-4-2-7 0-10 1-1 2-3 5-3 1 0 2 1 4 1 12 5 17 17 13 29l-16 41c-2 6-7 11-14 13-2 5-6 10-11 13l-32 19c4 7 7 13 9 18 3 0 5 1 8 1l49 21c2 0 5 1 7 2 0-1 0-1 1-1l1 0 48 4c2-2 4-6 6-8 2-4 3-8 7-8 5 0 6 4 7 6 2 5 3 11 1 17z m-142-27c-3-7-7-15-12-24l-3-4 40-24c4-2 7-6 8-11l0-3 4 0c4-1 8-4 9-8l16-41c2-4 1-9-2-12 1 4 2 8 0 13l-1 1-37 31c0 0 0 1 0 1l-1 3-2 0c-2 1-4 3-7 4l-46 19-2-2c-9-10-17-15-24-15l-95 0c-8 0-21 8-34 22l-3 2-46-19c-3-2-5-3-7-4l-3-1 0-2c0-1 0-1 0-1l-37-31-1-1c-2-5-1-10 0-14-1 1-1 2-2 4-1 3-1 6 0 9l16 41c1 4 5 7 9 8l3 0 1 3c1 5 4 8 8 11l38 23-2 4c-7 10-11 18-13 25l-1 3-4 0c-2 0-4 0-5 0l-50 21c-2 0-5 1-7 2l-3 1-2-1c0-1-1-1-1-1l-48 4 0 0-1 0c-5-2-7-6-10-10 1 5 3 9 8 11l40 18c4 1 9 1 12-2l3-1 2 1c4 3 9 3 13 2l52-13c0 0 0 0 1 0l6-2 14 59 1 3-9-4c-2-1-4-1-7-1-1 0-2 0-3 0l-50 21c-3 0-6 1-8 2l-2 1-2-2c0 0-1 0-1 0l-48 4 0 0-2 0c-4-2-7-6-9-10 0 1 1 3 1 4 1 3 4 5 7 7l40 18c3 1 8 1 12-2l2-2 3 2c4 2 9 3 13 2l52-13c3-1 6-2 8-5l6-7 2 9c1 3 3 6 4 9l3 4-24 16c-2 2-3 4-4 6l-1 2-1 1c-4 2-7 5-8 10l-5 22 0 1c-20 38-22 71-6 97 10 17 26 27 37 33-2-2-3-5-5-8-8-19 1-39 1-39 5-7 10-9 13-9 11 0 21 13 27 21 17-41-33-74-39-78l-3-3 3-3c1-2 2-4 2-6l5-22c0 0 0-1 0-1l0-3 23-15c1-2 3-4 4-6l1-3 4 0c2 1 4 1 6 1l110 0c3 0 6-1 10-1l3-1 1 2c1 0 1 1 1 1l22 15 0 4c0 0 0 0 1 1l4 21c1 2 2 4 3 6l3 4-4 3c-1 0-56 34-39 78 6-9 17-21 27-21 4 0 9 1 13 8 1 1 9 21 1 39-1 3-2 6-4 9 11-6 26-17 36-34 16-26 14-59-5-97l-6-23c-1-4-3-8-7-10l-1-1-1-1c-1-3-3-5-5-6l-20-15 2-3c1-3 2-5 2-8l2-6 6 3c1 1 3 2 4 3l52 12c4 1 9 1 13-2l2-1 3 1c4 3 8 4 12 2l40-18c3-1 6-4 7-7 0-1 1-2 1-4-2 4-5 8-10 10l-1 0-48-4c0 0-1 0-1 1l-2 1-2-1c-3-1-5-2-8-2l-50-21c-2 0-4 0-6 0l-7 1 12-56 56 14c4 1 9 0 12-2l3-2 3 2c3 2 8 3 12 1l40-18c3-1 5-3 7-7 0-1 0-2 0-3-2 3-4 7-9 9l-1 1-48-5c-1 1-1 1-1 1l-2 1-3-1c-2-1-5-1-8-2l-49-21c-2 0-5 0-7 0l-4 1z"/>
<glyph glyph-name="octopus" unicode="&#120;" d="M443 207c-28 0-61 7-71 25-5 11 1 23 6 31 21 29 33 62 33 94 0 86-70 155-155 155-85 0-155-69-155-155 0-32 12-65 33-94 5-8 11-20 6-31-10-18-43-25-71-25-29 0-53-24-53-54 0-29 24-53 53-53 16 0 37 3 56 8-5-4-11-8-15-11-21-15-28-40-18-64 6-14 18-25 32-30 14-5 28-4 40 3 36 19 59 51 76 74 5 7 12 16 16 20 4-4 11-13 16-20 17-23 40-55 76-74 7-4 15-6 23-6 5 0 11 1 17 3 14 5 26 16 32 30 10 24 3 49-18 64-4 3-10 7-15 11 19-5 40-8 56-8 29 0 53 24 53 53 0 30-24 54-53 54z m0-76c-19 0-54 8-69 14-14 6-29 1-36-11-7-13-3-27 10-36 4-2 10-7 16-12 6-4 13-10 20-15 12-8 10-18 7-25-2-6-8-11-14-13-3-2-9-3-14 0-30 16-51 45-66 66-15 20-25 34-41 34-16 0-26-14-41-34-15-21-36-50-66-66-5-3-11-2-14 0-6 2-12 7-14 13-3 7-5 17 7 25 7 5 14 11 20 15 6 5 12 10 16 12 13 9 17 23 10 36-7 12-22 17-36 11-15-6-50-14-69-14-12 0-22 10-22 22 0 13 10 23 22 23 49 0 85 15 98 42 10 19 7 42-8 63-17 25-26 50-26 76 0 68 55 124 123 124 68 0 123-56 123-124 0-26-9-51-26-76-15-21-18-44-8-63 13-27 49-42 98-42 12 0 22-10 22-23 0-12-10-22-22-22z m-239 229c-12 0-21-9-21-20 0-12 9-21 21-21 11 0 20 9 20 21 0 11-9 20-20 20z m104 1c-11 0-21-10-21-21 0-12 10-21 21-21 11 0 21 9 21 21 0 11-10 21-21 21z"/>
<glyph glyph-name="oyster" unicode="&#121;" d="M425 188c-25 3-55 6-88 7 56 28 126 63 142 74 34 23 43 70 20 104-14 21-37 33-62 33-1 0-2 0-4 0-1 26-15 50-39 62-11 6-23 9-36 9-13 0-26-4-38-11-13 22-37 37-64 37-27 0-51-15-64-37-12 7-25 11-38 11-13 0-25-3-36-9-24-12-38-36-39-62-2 0-3 0-4 0-25 0-48-12-62-33-23-34-14-81 20-104 16-11 86-46 142-74-33-1-63-4-88-7-64-8-87-19-87-41 0-77 112-138 256-138 144 0 256 61 256 138 0 22-23 33-87 41z m12 179c12 0 23-6 29-16 11-16 7-38-9-49-13-9-77-41-134-70l99 131c4 2 10 4 15 4z m-79 70c6 0 12-1 17-4 16-9 23-28 16-44l-96-128 35 161c6 10 17 15 28 15z m-102 26c18 0 33-14 35-31l-35-161-35 161c2 17 17 31 35 31z m-119-30c5 3 11 4 17 4 11 0 22-5 28-15l35-161-96 128c-7 16 0 35 16 44z m-91-82c6 10 17 16 29 16 5 0 11-2 15-4l99-131c-57 29-121 61-134 70-16 11-20 33-9 49z m210-194c0 0 0 0 0 0 0 0 0 0 0 0 0 0 0 0 0 0 0 0 0 0 0 0 77 0 135-4 172-10-37-5-95-9-172-9-77 0-135 4-172 9 37 6 95 10 172 10z m158-75c-42-21-98-33-158-33-60 0-116 12-158 33-18 9-32 19-42 29 9-1 19-3 31-4 45-6 105-9 169-9 64 0 124 3 169 9 12 1 22 3 31 4-10-10-24-20-42-29z"/>
<glyph glyph-name="shrimp" unicode="&#122;" d="M339 428l-291 0c-9 0-17 8-17 17 0 9 8 16 17 16l72 0 0 31-72 0c-27 0-48-21-48-47 0-25 18-45 41-48 2-28 8-54 18-76 10-22 24-41 42-56 31-25 65-32 78-34 3 0 4 0 5 0l0 0 155 0c32 0 58-27 58-59 0-25-15-46-36-55-9 29-36 50-68 50l-66 0 0-19c0-22 10-42 26-55-16-13-26-32-26-55l0-18 66 0c35 0 64 25 70 58l1 0 0 5c84 13 148 85 148 172 0 96-78 173-173 173z m-46-377l-33 0c6 16 20 27 37 27l33 0c-5-16-20-27-37-27z m4 58c-17 0-31 11-37 27l33 0c17 0 32-12 37-27z m-99 153l-13 0c0 0-1 0-2 0-8 2-36 7-62 28-29 23-45 60-48 107l128 0c12-17 39-69-3-135z m123 0l-86 0c21 43 19 81 13 106-3 11-7 21-11 29l87 0c12-17 39-69-3-135z m36-2c22 44 20 82 14 108-3 11-6 20-10 27 42-6 77-31 98-65 1-15-2-65-58-93-12 12-27 20-44 23z m67-119c3 10 5 20 5 31 0 14-3 28-9 40 32 17 50 41 59 62 1-6 2-13 2-19 0-46-23-88-57-114z m-279 228l25 0 0-24-25 0z"/>
<glyph glyph-name="bacon" unicode="&#65;" d="M474 414c-28 20-52 40-72 68-3 5-9 7-15 4-68-37-124-109-129-188-2 3-5 5-8 7-54 53-82 126-92 199-1 5-8 9-13 7-35-14-69-31-101-51-2-1-3-3-3-4-34-134 38-251 146-323-1-3-3-5-4-7-1-2 1-3 2-2 0 0 1 1 1 1-2-4-4-9-5-13-5-15-9-29-11-44-2-19-4-47 13-60 15-11 40-8 57-8 27 1 56 6 83 2 9-1 15 5 14 14-3 19 4 35-3 53 38-9 77-12 114-9 8 0 11 9 8 14 3 28 4 57 3 85 8 1 8 12 0 13-1 0-1 0-1 0 0 10-1 19-2 29-1 3-2 7-6 7-20 5-40 10-59 17 12 67 32 126 86 172 5 5 3 14-3 17z m-33-3c0 0-1 0-1 0-57-33-89-103-100-166-12 6-24 12-35 19 17 71 69 114 121 160 5-4 10-9 15-13z m-169-115c12 68 59 130 118 165 7-9 15-18 24-26-57-38-105-100-116-167-11 7-21 15-31 23 2 0 4 2 5 5z m-56-274c-28 2-26 22-23 46 1 18 6 36 11 54 16-9 33-18 50-26-21-14-31-50-28-73 0 0 0 0 0-1-3 0-7 0-10 0z m17 0c2 13 4 24 9 36 6 13 17 22 23 34 6-3 12-5 18-7-11-18-12-41-2-60 0 0 0 0 0 0-16-1-32-2-48-3z m86 47c-2-15-4-29-4-44-8 0-17 0-25 0 1 1 1 3 1 5-8 20-1 33 8 49 7-2 14-4 21-6-1-1-1-3-1-4z m126 73c-154 27-381 131-339 323 1 5-6 7-8 2-61-183 190-335 347-338-1-17-2-34-3-51-203 4-421 149-391 374 7 3 15 6 22 10 0-1 0-1 0-1-27-217 161-358 360-372 8-1 7 10 0 11-93 9-183 39-254 102-74 67-101 162-99 259 0 1 0 2-1 3 11 5 22 9 33 14-1-81 66-158 121-209 53-49 134-109 211-110 1-6 1-11 1-17z m-1 31c-77 10-144 55-200 107-58 52-114 122-121 202 6 2 11 4 17 6 14-89 54-168 127-225 36-28 78-46 121-59 26-7 52-1 56-31z m-69 57c-10 4-19 7-28 12 22 61 47 114 99 156-44-45-69-104-71-168z"/>
<glyph glyph-name="chorizo" unicode="&#66;" d="M498 255l-3 1 3 1c11 4 17 17 12 29-4 11-17 17-28 12l-23-9c-13 32-44 54-81 54l-305 0-73-174 378 0c37 0 68 22 81 54l23-9c11-5 24 1 28 12 5 12-1 25-12 29z m-120-43l-313 0 37 88 276 0c24 0 44-20 44-44 0-24-20-44-44-44z m0 51c0-12-10-22-22-22-12 0-21 10-21 22 0 12 9 22 21 22 12 0 22-10 22-22z m-73-22c0-8-6-14-14-14-8 0-15 6-15 14 0 8 7 15 15 15 8 0 14-7 14-15z m-130 30c0-8-7-15-15-15-8 0-15 7-15 15 0 8 7 14 15 14 8 0 15-6 15-14z"/>
<glyph glyph-name="pepperoni" unicode="&#67;" d="M456 492c-20 16-48 5-70 9-1 0-1 0-2 0-19 3-37 13-57 11-27-3-50-21-79-9-1 0-1-1-1-2-11 6-24 9-37 9-13 0-78-14-100-13 0 0 0 1-1 1-2 1-4 1-6 1 0 0-1 1-1 1 0 1-1 1-1 0 0 0 0 0 0 0-22 2-53-2-55-29-1-17 13-29 29-29 2-13 4-26 7-39-1-1-1-2 0-3 31-152 97-299 217-400 2-1 4 1 3 3 0 0 0 0-1 0 0 0 1 0 1 0 0 0 2 0 1 2 0 0 0 0 0 0 3 4 7 6 10 9 1 1 0 3-1 3-1 0-2 0-3-1 10 150 68 284 129 419 1 1 0 2-1 3 11 2 20 8 26 20 6 12 3 26-7 34z m-369-90c19 13 46 4 51-20 4-23-16-37-36-38-6 19-10 39-15 58z m213-398c-104 89-162 209-198 338 25-5 46 20 39 44-6 25-35 33-55 20-3 12-5 24-7 36 3 0 6 1 9 2 0-1 0-1 1-1 31-9 63-7 94 0 0 1 0 1 0 1 9-3 17-6 27-8 17-4 35-2 53 0 42 4 83 8 125 9 1 0 1 0 1 1 10-4 22-7 32-8-32-78-64-157-91-237-12-35-27-73-33-111-21-1-42 21-31 42 8 16 25 19 41 15 2-1 4 2 2 3-18 12-45-2-50-21-7-23 15-44 37-42-4-28-4-55 5-82-1 0-1 0-1 0 0 0 0-1 0-1z m134 433c-61-134-123-272-128-422 0 0 1 0 1 0-2-2-4-4-5-6-17 74 19 156 44 224 24 69 52 136 80 204 0 0 0 0 0 0 3 0 6 0 9 1 0-1 0-1-1-1z m18 14c-27-25-69 5-97 11-1 0-2-2-1-2 9-3 21-9 33-13-42 2-82-3-124-7-24-3-44-3-67 4-18 5-26 11-44 10-2-1-2-3 0-3 11 0 20-3 29-6-30-5-60-3-90 1 0 1-1 1-2 1-19-7-46 8-36 31 9 19 31 18 49 18 15-9 40-2 55 1 36 8 72 17 102-11 2-1 4 1 2 3-3 4-7 7-11 10 20-8 37-2 59 4 22 6 37 2 59-4 10-3 17-4 28-3 0 0 0 0 0 1 7-1 13-1 20-1 7 0 15 0 22-1 18-4 28-30 14-44z m-162-312c-4 2-9 0-13-2-1-1 0-4 2-3 4 2 7 2 11 2 2 0 2 2 0 3z m4-8c-2-3-5-4-7-2-1 1-3 0-2-1 3-4 11-3 11 3 0 1-2 1-2 0z m-12-13l-1 2c1 0 1 2 0 2-3 0-6-3-4-6 1-2 5-2 6 0 1 1-1 2-1 2z m-48 86c-14 9-34 4-42-11 0 0 0 0 0 0-13-7-7-29 0-38 11-15 33-19 47-5 14 13 11 43-5 54z m-32-53c-9 7-22 31-9 39 1 0 2 0 2 1 0 0 0 0 0 0 1 0 2 1 2 1 1 0 1 2 0 2 7 8 18 12 28 9 17-5 23-29 16-43-7-15-26-18-39-9z m4 29c-5-1-5 0-2 5 2 0 2 2 0 2-3 0-7-3-6-7 2-3 6-4 9-2 1 1 0 2-1 2z m8 8c-2 0-1-2 0-2 3-1 4-3 4-5 0-2 2-2 2-1 2 4-2 8-6 8z m10 6c-2 1-3 2-5 3-1 1-3-3-1-3 2-1 3-2 5-2 1-1 2 1 1 2z m9-17c-1 1-2 2-3 4 0 2-4 1-3 0 0-4 2-6 6-6 1 0 1 2 0 2z m-11-11c-3-1-8 1-6 5 1 1-1 2-1 1-4-5 4-13 9-8 1 0 0 2-2 2z m-9-5c-3-1-6-1-6 3 0 1-2 2-2 0-1-4 6-10 9-5 1 1 0 2-1 2z m108 120c-11 16-34 19-48 8-18 1-20-28-15-40 8-19 31-27 49-18 19 9 25 33 14 50z m-12-44c-13-8-31-7-41 5-5 5-8 12-9 20 0 8 2 20 10 23 0-1 2-2 4-1 13 10 34 10 44-5 8-13 5-33-8-42z m-31 40c-4 1-10-3-8-9 1-1 2 0 2 1 0 3 2 7 6 6 1 0 2 2 0 2z m15 7c-7 0-10-7-13-12 0 0-1-1-1-1 4-5 12-4 12 3 0 1-1 1-2 0-1-3-5-5-7-3 1 3 3 6 5 9 4 3 12 3 11-4 0-2 3-2 3 0 1 5-4 8-8 8z m17-19c0-1-1-2-2-3-3-1-3 0-2 3 1 0 2 2 1 2-3 2-8-3-5-6 3-3 10-1 11 3 0 2-2 2-3 1z m-10-17c-3 1-6 1-8 1-1 2-1 4-1 6 0 1-2 1-2 0 0-3 0-5 0-7 0-1 1-2 1-2 4 0 7 0 10 0 1 1 1 2 0 2z m2 0c0 0 0-1 0-1 0 0 0 1 0 1z m-21 10c-1 1-3-2-1-3 1-2 1-3-2-4-1 0-1-2 0-2 5-1 8 6 3 9z m-8 5c-2-1-4-2-5-2-2-1 0-4 1-3 2 1 4 2 5 2 2 1 0 4-1 3z m-62 70c-15 18-39 18-56 5 0-1 0-1 0-1-15-8-17-29-7-42 12-17 37-25 55-14 18 12 21 36 8 52z m-9-47c-31-21-76 25-46 49 0 0 1 0 1 0 14 10 34 12 48-1 13-14 13-37-3-48z m203 117c-18 19-49 15-60-10-10-24 8-52 36-52 1 0 1 2 0 2-21 4-39 21-33 44 7 24 37 31 54 12 2-2 5 2 3 4z m-99-12c-4 20-24 32-43 27-1-1-1-3 0-2 15 1 32-7 37-22 6-16-4-36-20-40-16-5-34 5-39 20-5 16 5 33 20 39 2 2 0 6-2 5-17-7-29-27-23-45 6-18 27-29 45-24 17 5 29 24 25 42z m63-7c-1-2-5-4-6 0 0 1-3 1-3-1 1-6 13-6 11 1 0 1-1 1-2 0z m-3 6c0-1 1 0 1 1 0 4 4 2 5 1 1-1 2 0 2 1 0 5-10 3-8-3z m25 4c-1-1-5-2-4 1 0 2-2 2-3 1-1-6 9-9 10-3 0 1-2 2-3 1z m-16-22c0-2 3-2 3 0 0 4 3 2 5 1 1-1 2 0 1 1 0 6-9 3-9-2z m-1-9c-1-1-3-3-5-2-5 1-4 7 0 9 0 0 0 1-1 1-4-2-6-7-3-11 3-4 10-3 12 2 0 1-2 3-3 1z m-95 7c-3-4-10-7-13-1 0 1-2 1-1 0 2-7 15-8 16 0 0 1-1 2-2 1z m-4 7c0-2 1-2 2-1 1 3 3 5 6 3 3-1 3-2 4-5 0-1 1-1 1 0 3 8-11 12-13 3z m11 21c0 1-2 1-2 0-1-2-1-4-4-5-3-2-6 1-6 5 0 1-2 1-3 0 0-5 4-9 8-9 5 0 9 5 7 9z m-17 10c-3 1-6 1-10 0 0 0-1 0-1-1 0-2 0-5 0-7 0-1 2-1 2 0 0 2 0 4 0 6 3 0 6 0 9 1 1 0 1 1 0 1z m-2-20c-2 5-6 7-10 9 0 0-1 0-1 0-2-2-3-4-2-6 0-1 1-1 1 0 0 8 9-2 10-4 1 0 3 0 2 1z m-5-11c-1-4-8-5-9-1-1 1-2 1-2 0 2-7 13-7 14 0 0 2-2 2-3 1z m-2 7c-3 4-8 5-13 5-1 0-1-1 0-1 5 0 8-2 11-5 1-1 2 0 2 1z m-92-66c-4-3-9-4-11 1 0 1-2 1-2 0 2-6 12-9 14-2 0 0-1 1-1 1z m6 6c-2 4-6 4-9 2-1-1-1-2 0-2 3 1 5 0 8-1 0-1 2 0 1 1z m22 0c-3-6-12-6-13 2 0 2-2 2-2 0 0-10 15-13 17-2 0 1-1 2-2 0z m-1 6c-2 0-2-2-1-2 6-1 8-6 8-11 0-1 2-2 2-1 3 7-3 13-9 14z m7-27c-3-1-5-2-7-1-4 2-4 6-2 9 1 1 0 2-1 1-7-8 6-19 11-10 0 0 0 1-1 1z m-17-5c-5-2-12 1-10 6 0 2-2 2-3 1-2-8 9-15 14-8 1 1 0 2-1 1z m-24 2c-1 0 0-1 0-1 2 0 3-1 4-4 0-1 1-1 2 0 1 4-3 8-6 5z m-46 62c-2-4-4-6-9-6-1 0-1-2 0-2 5 0 10 3 11 8 0 1-2 1-2 0z m9 6c-4 1-8 2-12 3-2 0-3-2-1-3l12-2c2-1 2 2 1 2z m1 25c0 1-2 0-1-1 3-7-6-13-9-6-1 2-3 1-2-1 2-4 7-6 11-3 4 2 4 8 1 11z m-25 2c0-1 2-1 2 0 2 9 9 4 10 0 0-1 2-1 2 0 1 10-13 10-14 0z m9-11c-1 0-2-2 0-2 1-3 0-2-2 1 1 2-1 2-2 1-1-3 2-9 6-6 2 2 1 6-2 6z m-4-8c0 1-1 2-2 0-1-3 1-7 3-10 0 0 1 1 1 1-2 3-3 6-2 9z"/>
<glyph glyph-name="sausage" unicode="&#68;" d="M511 127c-2 4-5 6-9 7 4 4 7 9 3 15-3 4-8 5-13 4 0 8-3 15-11 16-9 0-16-9-18-18-6 5-13 7-21 7-14-1-26-8-38-12-14-5-27-7-41-7-15-1-28 3-43 2-14-1-29-6-41-15-4-2-7-6-10-9-4-5-7-11-9-17-6 8-18 14-28 16-20 4-40-1-60 3-11 3-18 8-26 14-8 5-17 10-26 12-4 1-8 1-13 1 4 5 7 11 9 18 2 9 3 17 10 23 8 6 17 11 25 16 13 8 23 19 29 33 13-8 30-10 44-11 19-2 37 2 56 5 24 4 52 10 70 29 5 5 9 11 12 18 4-2 9-3 13-4 10-3 19-3 28-2 18 3 36 12 49 23 28 23 49 56 48 93-1 18-9 33-21 47-11 12-26 22-42 26-17 3-35-2-47-14-1-2-2-3-3-4-1 11-6 22-16 28-15 10-34 8-51 4-9-2-19-6-29-8-11-2-22-2-32-1-18 2-36 8-53 0-6-2-10-5-14-9-2 8-6 14-12 19-12 10-29 9-44 10-10 1-20 3-30 5-9 1-18 5-27 8-14 4-28 6-40-2-2 3-4 5-6 6-4 3-10 5-15 5-4 0-9-2-10-7-1-3 0-6 1-9-3-1-6-3-7-6-2-5-1-8 2-12-5-5-6-12 0-17 3-3 9-5 14-5 0-15 7-28 17-38 22-23 55-35 86-39 15-1 33-2 46 7 8 4 12 12 16 20 0 0 0 1 1 2 2-6 7-12 12-17 28-23 69-24 103-20 19 2 40 5 56 17 7 4 14 11 19 18 1-1 1-2 1-3 6-8 19-10 22-19 3-10-11-19-19-21-5-2-11-2-16-3-4-1-8-3-11-6-4-3-6-6-8-10-12 7-27 5-41 3-10-2-20-4-30-6-10-2-20-2-31-2-19 0-41-1-58-12-6-4-12-10-16-17-1-2-2-5-2-8-24 14-56 4-78-9-31-17-55-49-67-82-7-21-10-46-3-66 3-9 9-17 17-21 7-4 16-6 24-5-5-10-8-22-7-33 1-18 12-32 27-43 17-12 36-19 56-24 21-5 43-8 64-9 21 0 45 3 60 18 7 7 11 15 13 25 3-5 7-9 12-12 9-7 22-8 33-9 14-1 28 0 42 1 26 4 53 10 78 21 11 5 22 12 29 22 7 8 11 19 13 29 0 0 0 1 0 1 5 0 10 1 14 2 6 2 11 4 15 9 4 4 6 9 4 15z m-496 334c-2 0-4 1-5 2-3 3 1 5 3 7 2 2 1 4 0 6-2 2-3 3-3 5 1 2 3 2 5 2 4 0 6 3 5 6 0 2-4 7-3 8 2 2 9-1 10-2 1-1 3-3 6-4-8-8-12-19-14-30-1 0-3 0-4 0z m164-37c0-1 0-1 0-2-3-10-7-22-15-29-8-8-22-8-33-8-26 1-53 10-75 25-10 7-21 17-25 29-4 12-1 26 5 37 3 5 6 9 11 12 6 3 13 2 19 0 16-4 30-10 46-12 9-1 18-3 28-3 7-1 15-1 22-2 7-2 12-5 16-11 7-11 3-24 1-36z m174-28c-12-11-28-14-43-17-30-5-63-6-91 7-13 6-25 15-28 30-3 14 2 28 14 35 12 8 26 5 40 3 18-2 36-3 54 2 17 5 36 13 55 9 7-2 14-5 18-11 12-19-4-46-19-58z m34-48c13 6 27 20 21 36-3 8-9 12-16 16-3 2-6 4-7 7-1 4 1 7 2 11 5 15 16 28 33 31 14 2 28-5 39-13 12-9 23-21 27-35 9-31-8-65-29-86-13-13-27-24-45-29-9-3-18-4-27-2-4 0-8 1-11 2-3 1-7 2-10 4 0 0 0 0 0 0 0 2 0 3 0 5 0 13-3 28-12 38 1 14 25 11 35 15z m-211-52c1 3 2 5 4 8 4 5 10 9 16 12 14 6 31 6 46 6 18 0 34 2 51 6 13 2 29 7 42 2 12-5 17-21 17-33 1-11-3-22-11-30-15-15-39-20-59-24-32-6-68-11-98 5 1 1 1 1 1 2 1 9 1 18-3 26-2 7-10 12-6 20z m-137-167c-7 4-10 11-12 18-4 17-1 36 4 52 9 30 30 60 57 76 19 12 47 24 69 13 12-6 18-20 16-34-2-18-15-32-30-42-8-5-16-9-23-15-8-6-12-13-14-22-2-9-3-18-10-25-3-3-7-6-11-9-6-2-12-7-17-12-1-1-3-3-5-5-8-1-17 1-24 5z m220-58c0-13 1-26-7-36-10-12-28-16-42-17-19-1-39 2-58 5-18 3-35 8-51 16-14 7-29 16-36 31-6 14-2 31 6 43 8 14 24 22 40 21 9-1 17-5 24-9 7-5 13-11 22-14 18-8 38-5 58-5 10 0 20-2 29-7 10-6 16-17 15-28z m209 40c0-18-11-36-26-45-19-11-43-17-64-22-24-5-47-7-71-3-5 1-11 1-15 4-5 3-9 7-12 12-6 7-9 16-10 25 0 7 1 15 4 21 8 16 26 24 43 26 12 2 23-1 35-2 12-1 24-1 36 1 11 2 22 7 32 11 9 4 20 9 31 6 13-4 18-22 17-34z m26 4c-4-2-10-2-14-3 0 12-4 24-11 34 3 4 5 9 9 12 6 4 5-6 4-10-1-4 3-7 7-5 1 1 8 3 8 0 1-2-5-6-6-7-2-2-2-6 1-8 3-1 11-2 11-6 0-3-6-6-9-7z"/>
<glyph glyph-name="green-sauce" unicode="&#69;" d="M420 368l54 67c1 2 1 5 1 7-1 2-3 3-6 4l-58 7 5 7c1 2 1 4 0 6-1 2-3 3-5 4l-189 42c-2 0-5 0-6-2-2-1-2-3-2-6l20-102c-61-3-117-18-160-44-45-27-70-63-70-101 0-142 113-257 252-257 139 0 252 115 252 257 0 43-32 83-88 111z m75-111c0-10-2-20-6-29-9 40-45 76-101 99l24 31c53-26 83-62 83-101z m-109-111c0 2-1 3-2 4-22 15-44 0-45-1-3-2-3-6-1-9 1-2 3-3 5-3 1 0 3 1 4 2 0 0 12 9 25 3-35-11-75-17-116-17-50 0-98 8-138 24-38 15-68 36-85 60 1 34 24 65 63 90 40 24 94 39 151 40l0-1-12 0c-4 0-7-3-7-7 0-3 3-6 7-6l20 0 39-2 3-10c1-2 2-4 4-4l51-21 16-7c1-1 2-1 3-1 2 0 4 2 5 4 2 3 0 7-3 8l-9 5 16 20c61-25 97-65 99-108-17-24-47-45-85-60-2-1-5-2-8-3z m-34 156l-44 17-42 138 191-23z m48 157l-3-5-139 17c-2 0-4 0-6-2-1-2-1-4-1-6l39-127-30 1-32 160z m-319-112c41 25 96 40 156 42l7-37c-58-2-113-17-154-42-37-23-60-51-67-82-4 9-6 19-6 29 0 34 22 66 64 90z m175-334c-113 0-208 81-233 189 18-26 50-48 90-64 42-17 92-26 143-26 51 0 101 9 143 26 40 16 72 38 90 64-25-108-120-189-233-189z m-104 265c-24 12-44-6-44-7-3-3-3-7 0-9 1-1 2-2 4-2 2 0 3 1 5 2 0 0 13 13 29 5 3-2 7 0 9 3 1 3 0 7-3 8z m75-56c2 2 1 6-2 8-22 16-44 0-45 0-2-2-3-6-1-9 1-2 3-3 5-3 1 0 3 1 4 1 1 1 15 11 30 1 3-2 7-1 9 2z m44 39c1 0 2 0 3 1 0 0 16 11 30 1 3-2 7-2 9 1 2 3 2 7-1 9-22 16-44 0-45-1-3-2-4-6-2-8 2-2 4-3 6-3z m42-73c-22 15-44 0-45-1-3-2-3-6-1-9 1-1 3-2 5-2 1 0 2 0 4 1 0 0 15 11 30 0 2-2 6-1 8 2 2 3 2 7-1 9z m-162-5c-22 15-44 0-45-1-2-2-3-6-1-9 1-2 3-2 5-2 1 0 3 0 4 1 0 0 15 11 30 0 3-2 7-1 9 2 2 3 1 7-2 9z m-58 34c-22 15-44 0-45-1-3-2-3-6-1-9 1-2 3-2 5-2 1 0 2 0 3 1 1 0 16 11 31 0 2-2 6-1 8 2 2 3 2 7-1 9z m116 84c2 0 3 0 4 1 1 0 16 11 30 0 3-2 7-1 9 2 2 3 1 7-1 9-23 16-44 0-45-1-3-2-4-6-2-9 1-1 3-2 5-2z m53-161c-22 15-44 0-45-1-3-2-3-6-1-9 1-2 3-2 5-2 1 0 2 0 4 1 0 0 15 11 30 0 3-2 6-1 9 2 2 3 1 7-2 9z m151 69c2 3 2 7-1 9-22 15-44 0-45-1-3-2-4-6-1-9 1-2 3-3 5-3 1 0 2 1 3 2 1 0 16 11 30 0 3-2 7-1 9 2z m-14 51c1 0 3 0 4 1 0 0 15 11 30 0 3-2 7-1 9 2 2 3 1 7-2 9-22 16-44 0-45-1-3-2-3-6-1-9 1-1 3-2 5-2z"/>
<glyph glyph-name="habanero-sauce" unicode="&#70;" d="M221 362l0 38-45 0-12 112-61 0-12-112-45 0 0-38-24 0 0-362 223 0 0 362z m-91 120l7 0 9-82-24 0z m85-452l-162 0 0 302 23 0 0 37 115 0 0-37 24 0z m251 332l0 38-45 0-12 112-61 0-12-112-45 0 0-38-24 0 0-362 223 0 0 362z m-91 120l7 0 8-82-24 0z m84-452l-162 0 0 302 24 0 0 37 115 0 0-37 23 0z m-325 231c-35 0-64-29-64-64 0-35 29-64 64-64 35 0 64 29 64 64 0 35-29 64-64 64z m0-97c-19 0-34 15-34 33 0 18 15 33 34 33 18 0 33-15 33-33 0-18-15-33-33-33z m244 97c-35 0-64-29-64-64 0-35 29-64 64-64 35 0 64 29 64 64 0 35-29 64-64 64z m0-97c-18 0-33 15-33 33 0 18 15 33 33 33 19 0 34-15 34-33 0-18-15-33-34-33z"/>
<glyph glyph-name="hot-jalapeno" unicode="&#71;" d="M507 392c-2 0-4-1-5-4 0-7-1-17-2-28-7-26-25-30-35-30-2 0-4 0-5 0-2 2-8 6-15 6-2 0-5 0-7-1-8 5-16 8-25 8-23 0-45-19-55-29-5 26-35 45-64 55-43 10-57 38-59 53l-1 17-8-15c-19-39 11-62 38-83 23-19 43-35 31-58-4-8-9-12-14-13-1 0-2-1-3-1-8 0-18 8-27 14-3 3-7 5-11 8-9 5-28 14-48 14-10 0-19-2-27-7l-7-4 7-4c5-3 12-6 18-9l1 0c18-9 42-20 44-34 1-7-2-15-11-24-9-10-14-11-16-11-1 0-1 0-1 0-4 1-7 10-10 19-6 17-14 40-38 40-2 0-5 0-8-1l-12-2 10-6c7-4 11-10 12-19 2-9 1-19-4-30-2 29-12 54-45 76-2 1-51 33-83 33-3 0-6 0-8-1l-14-3 13-6c39-17 41-50 43-85 1-8 1-16 2-24 4-16 13-39 35-55 8-5 19-8 28-11 10-2 19-5 27-10-33-18-65-32-96-42-2-1-3-2-4-4 0-2 1-3 3-4 3-3 9-4 17-4l0 0c70 0 366 82 401 161 8 12 11 27 9 42 9 9 12 21 10 32 11 8 17 24 21 50 2 9 3 19 3 30 0 2-2 4-5 4z m-28-83c2-9 0-19-7-26-16 8-26 34-29 44 1 0 1 0 2 0 5 0 9-4 9-4 1-1 2-1 3-2 0 0 3 0 8 0 6 0 18 1 28 9-4-8-8-13-12-16-2-1-3-3-2-5z m-120-6c2 1 28 31 54 31 8 0 14-3 20-7 2-8 14-42 36-52 2-13-1-26-8-37-31-69-301-151-386-155 164 59 283 218 284 220z m-259-22c34-23 41-47 42-84l0-14 8 11c9 11 17 32 13 51-1 6-3 12-7 17 13-2 19-16 25-34 4-12 7-23 17-26 7-1 15 3 26 15 11 11 15 21 13 31-3 19-28 31-49 41-4 2-7 3-10 5 5 1 9 2 14 2 14 0 29-5 44-13 3-2 6-5 10-7 10-8 21-16 32-16 2 0 4 0 5 1 8 2 15 8 20 18 16 30-9 50-34 69-22 17-43 34-39 58 6-13 21-37 62-46 6-2 62-23 57-56-15-18-89-109-193-172-9 8-21 11-32 14-10 3-19 5-26 10-19 14-27 34-30 48-1 8-2 16-2 24-2 29-4 62-33 84 23-5 52-21 67-31z"/>
<glyph glyph-name="jalapeno" unicode="&#72;" d="M509 354c0 2 0 4 0 6 1 2 1 4 1 6 0 2 0 3 0 5 0 2 0 4 0 6 0 2 0 3 0 5 0 2-1 3-1 5 0 2 0 3-1 5 0 1 0 3-1 4 0 2 0 4-1 6 0 0-1 1-1 2 0 2-1 4-2 6 0 0-1 1-1 2-2 2-3 5-4 7-1 1-2 3-4 4-1 2-3 4-5 5-1 2-2 3-4 4-2 2-5 4-8 5-1 0-1 1-2 1-4 2-8 4-12 5-1 0-2 1-4 1 10 14 15 29 12 41-2 8-8 20-27 26-5 2-11 0-13-6-1-5 1-11 6-13 8-2 13-6 14-12 2-7-3-19-13-29-18 3-42 5-64-6 0 0 0 0 0 0 0 0 0 0 0 0-1 0-2-1-3-1-2-1-3-2-4-3-1 0-2-1-3-1-2-2-4-3-6-5 0 0-1-1-2-2-2-1-4-3-5-5-1-1-1-1-2-2-2-2-3-4-5-7 0 0-1-1-1-1-2-3-3-5-5-8 0 0 0-1 0-1-6-10-10-22-13-36l-2-10c0 0-3-13-4-18-34-151-159-230-306-312-9-5-13-15-10-24 2-5 7-9 13-9 1 0 1 0 2 0 13 2 28 3 46 5 110 8 316 24 422 273 1 2 12 25 19 54l0 0 1 4c0 0 0 0 0 0 1 4 1 8 2 12 0 2 1 4 1 6z m-28-15c-2 31-24 50-25 51l-19 17 3-25c1-14-9-22-18-26 2 26-15 43-16 44l-8 8-7-9c-3-5-16-11-42-14 1 1 1 1 1 1 2 7 5 14 9 19 0 0 0 0 0 1 1 2 2 3 4 5 0 0 0 0 0 0 4 5 8 9 13 12 1 1 1 1 2 1 1 1 3 2 4 3 1 0 1 0 1 0 6 3 11 5 17 5 0 0 1 1 2 1 1 0 3 0 4 0 1 0 2 0 2 0 2 0 4 0 5 0 2 0 3 0 4 0 2 0 4 0 6 0 1-1 2-1 3-1 2 0 3 0 4 0 1-1 2-1 3-1 2 0 3-1 5-1 1 0 2-1 3-1 1 0 2 0 3-1 1 0 2 0 3-1 0 0 1 0 1 0 1-1 3-1 4-1 0-1 0-1 0-1 1 0 2 0 2-1 0 0 0 0 1 0 0 0 0 0 0 0l2-1c4-1 7-2 10-3 0 0 0-1 1-1 2-1 5-3 7-5 0 0 0 0 0 0 3-2 5-5 6-7 1 0 1-1 1-1 2-3 3-5 4-8 0 0 0-1 1-2 0-2 1-5 2-8 0-1 0-1 0-2 1-4 1-8 1-12 0 0 0-1 0-1 0-4 0-9-1-13 0 0 0-1 0-1 0-5-1-10-2-16-2-1-4-3-6-4z m-419-314c-10-1-19-2-27-3 146 82 269 164 304 318 1 6 2 11 3 15l1 2c0 2 1 5 1 7 29 3 45 9 54 14 3-7 7-18 2-32l-6-15 16 1c14 2 35 9 45 27 4-9 8-21 5-35l-3-16 16 5c0 0 2 1 6 2-6-16-11-28-11-29-102-238-292-252-406-261z m347 273c-5 1-10-3-11-9 0-1-25-150-243-221-5-1-8-7-6-12 1-5 5-7 9-7 1 0 2 0 4 0 229 74 255 231 256 237 0 6-3 11-9 12z"/>
<glyph glyph-name="red-sauce" unicode="&#73;" d="M512 316c0 45-27 86-76 117-48 30-112 47-180 47-68 0-132-17-180-47-49-31-76-73-76-117 0 0 0-1 0-1 0-76 27-147 75-200 48-53 112-83 181-83 69 0 133 30 181 83 48 53 75 124 75 199 0 1 0 2 0 2z m-256 151c117 0 214-52 238-120-15 23-37 44-66 61-47 27-108 42-172 42-64 0-125-15-172-42-29-17-51-38-66-61 24 68 121 120 238 120z m242-167c-12-76-116-137-242-137-126 0-230 61-242 137 6 37 33 71 77 97 45 26 104 40 165 40 61 0 120-14 165-40 44-26 71-60 77-97z m-242-255c-114 0-210 88-236 206 13-20 32-38 56-53 48-31 112-48 180-48 68 0 132 17 180 48 24 15 43 33 56 53-26-118-122-206-236-206z m-168 192c-7 6-14 13-20 19-2 3-6 4-9 1-3-2-3-6-1-9 6-7 14-15 22-21 1-1 3-2 4-2 2 0 4 1 5 3 3 2 2 7-1 9z m365 50c-24-60-107-101-202-101-52 0-103 13-142 36-3 2-7 1-9-2-1-3 0-7 3-9 40-25 93-38 148-38 100 0 188 45 214 109 2 3 0 7-3 8-4 2-7 0-9-3z m-299 10c28-10 59-15 91-15 32 0 63 5 91 15 4 2 5 5 4 9-1 3-5 5-8 4-27-10-56-15-87-15-31 0-60 5-87 15-3 1-7-1-8-4-1-4 1-8 4-9z m248 0c-31-44-107-49-108-49-3-1-6-4-6-7 0-4 3-6 7-6 0 0 0 0 0 0 3 0 83 5 118 55 2 3 1 7-2 9-3 2-7 1-9-2z m-266-43c2 0 5 2 6 4 1 3 0 7-4 9-23 10-38 22-41 34-3 12 5 21 5 21 2 3 2 7-1 9-3 3-7 2-9-1-1 0-12-13-7-32 4-17 20-32 48-43 1-1 2-1 3-1z m117 135c1 0 70-4 101-34 1-1 3-2 4-2 2 0 4 1 5 2 3 3 3 7 0 9-35 34-106 38-109 38-3 1-6-2-7-6 0-3 3-6 6-7z m-52-73c21-2 40-3 55-3 46 0 66 8 67 25 2 20-38 28-51 31-3 0-7-2-7-6-1-3 2-7 5-7 21-4 41-12 40-17 0-6-9-10-25-12-18-2-45-1-83 2-4 0-7-3-7-6 0-4 2-7 6-7z m52-74c-12-2-38 2-38 2-4 1-7-2-8-5 0-4 2-7 6-8 1 0 20-3 34-3 3 0 5 0 8 1 3 0 6 3 5 7 0 3-3 6-7 6z m129 136c0 0 13-5 27-13 12-7 27-18 31-33 3-11-1-22-11-34-3-3-2-7 0-9 2-1 3-2 5-2 2 0 3 1 5 2 13 16 18 31 14 47-10 35-65 53-67 54-3 1-7-1-8-4-1-3 0-7 4-8z m-322-78c-1 2-14 41 37 62 3 1 5 5 3 8-1 4-5 5-8 4-63-26-44-78-44-78 1-3 3-4 6-4 1 0 2 0 2 0 4 1 5 5 4 8z"/>
<glyph glyph-name="apple" unicode="&#74;" d="M301 209l30 0 0-30-30 0z m-120 0l30 0 0-30-30 0z m60 0l30 0 0-30-30 0z m99 180c-24 0-48-6-69-18l0 141-30 0 0-61c-28 37-72 61-122 61l-15 0 0-15c0-43 18-82 47-110-68-10-121-69-121-140 0-19 4-38 11-56l57-132c15-36 50-59 89-59 26 0 51 11 69 29 18-18 43-29 69-29 39 0 74 23 89 59l57 132c7 18 11 37 11 56 0 78-64 142-142 142z m-205 92c55-7 98-50 105-105-6 1-12 2-17 4-4 1-8 2-11 3-41 16-71 53-77 98z m308-278l-56-132c-11-25-35-41-62-41-22 0-43 11-56 30l-4 7-18 0-4-7c-13-19-34-30-56-30-27 0-51 16-62 41l-56 132c-6 14-9 29-9 44 0 62 50 112 112 112 10 0 20-1 30-4 4-1 7-3 11-4 12-5 23-11 33-20l10-9 10 9c20 18 47 28 74 28 62 0 112-50 112-112 0-15-3-30-9-44z"/>
<glyph glyph-name="avocado" unicode="&#75;" d="M356 293c-20 30-46 47-70 47 0 0 0 0 0 0-24 0-49-17-70-47-19-28-31-62-31-90 0-39 11-69 32-88 17-16 41-24 69-24 0 0 0 0 0 0 28 0 52 8 69 24 21 19 32 49 32 88 0 28-12 62-31 90z m-70-176c-34 0-75 15-75 86 0 49 42 112 75 112 15 0 34-14 49-37 16-23 26-52 26-75 0-71-41-86-75-86z m182 104c-6 40-30 86-55 133-16 32-33 65-44 95-17 47-48 69-82 59-33 10-93 4-120-59-12-28-32-57-53-89-32-46-64-95-71-143-9-66 3-119 37-157 45-52 114-60 152-60 0 0 21 0 30 1 8-1 16-1 24-1 0 0 2 0 3 0 61 0 112 21 145 59 33 39 45 94 34 162z m-369-144c-28 32-39 78-30 137 5 42 36 88 66 132 21 31 43 63 56 93 7 16 16 27 26 35-4-8-8-16-11-25-11-30-28-63-45-95-24-47-48-93-54-133-11-68 0-123 34-162 8-9 16-17 26-24-24 7-49 20-68 42z m315-2c-37-43-94-49-125-49-1 0-3 0-3 0-31 0-89 6-125 49-29 34-38 81-29 142 6 36 29 82 52 126 17 32 34 65 46 97 7 20 24 52 52 43 5-2 8-1 11 0 28 10 44-23 52-43 11-32 29-65 45-97 23-44 47-90 53-126 9-61 0-108-29-142z m-169 132c-7 0-13 6-13 13 0 19 20 57 42 64 7 2 14-1 16-8 2-7-1-14-8-16-10-3-24-29-24-40 0-7-6-13-13-13z"/>
<glyph glyph-name="coconut" unicode="&#76;" d="M428 429c-107 107-232 111-333 9-104-104-117-346-61-402 23-23 67-36 126-36 1 0 2 0 3 0 89 0 207 30 274 96 101 102 98 226-9 333z m-6-318c-63-62-175-90-259-90-1 0-2 0-2 0-52 1-94 12-111 30-23 23-33 91-24 167 10 86 41 162 84 205 45 45 95 68 145 68 53 0 107-26 158-77 99-99 102-209 9-303z m-294 274c-4-6-90-136-53-301 1-5 5-8 10-8 1 0 2 0 2 0 6 1 10 7 8 13-35 156 50 283 50 284 4 5 2 11-2 15-5 3-12 2-15-3z m184 24c0-13-11-24-25-24-13 0-24 11-24 24 0 14 11 25 24 25 14 0 25-11 25-25z m73-13c0-13-11-24-25-24-13 0-24 11-24 24 0 14 11 24 24 24 14 0 25-10 25-24z m-52-52c0-13-11-24-24-24-14 0-25 11-25 24 0 14 11 25 25 25 13 0 24-11 24-25z"/>
<glyph glyph-name="lemon" unicode="&#77;" d="M476 233l-13 0c18 60 14 120-12 167 8 8 12 19 12 30 0 12-5 24-13 32-17 17-43 17-60 3-87 54-213 29-302-60-89-89-113-215-60-302-14-17-13-43 3-60 17-17 45-17 62-1 28-15 61-23 95-23 26 0 53 4 80 13 15-3 30-5 47-5 108 0 197 88 197 197l0 9-36 0z m-269-104c-21 24-34 54-36 86l122 0z m99 74l0-122c-33 2-63 15-86 36z m18 0l85-86c-23-21-53-34-85-36z m98-74l-86 86 122 0c-2-32-15-62-36-86z m-326-68l-6 3-8-8c-11-11-28-11-38 0-11 10-11 27 0 38l7 7-4 6c-53 79-30 201 54 285 84 84 206 107 285 54l6-4 7 7c11 11 28 11 38 0 5-5 8-11 8-19 0-7-3-14-8-19l-8-8 3-6c27-45 32-105 13-164l-328 0 0-9c0-4 0-9 1-13 0-1 0-2 0-3 0-5 1-9 1-13 0 0 0 0 0 0 1-5 2-9 3-13 0-1 0-2 0-3 1-4 2-8 3-12 1 0 1-1 1-1 1-4 2-8 4-12 0-1 1-2 1-3 2-3 3-6 4-9 1-1 1-2 1-3 2-4 4-7 6-10 1-2 1-3 2-4 2-3 3-5 5-7 1-2 2-4 3-5 1-3 3-5 5-8 1-1 2-3 4-4 1-2 3-4 4-6 2-1 3-3 4-4 3-3 5-5 7-7 1-2 3-3 4-4 2-2 5-4 7-6 1-1 1-1 2-2 3-3 7-5 10-8 1 0 1 0 2-1 11-8 23-15 37-20-52-12-102-6-142 18z m219-16c-16 0-31 2-45 6-5 1-9 2-14 4 0 0 0 0 0 0-5 1-9 3-13 5-1 0-1 0-1 0-11 5-21 11-30 17-2 2-5 4-7 6-2 1-3 2-5 3-2 2-5 5-8 7-1 1-2 2-3 4-3 2-6 5-8 8-1 1-2 2-3 3-3 3-5 6-8 10 0 1-1 2-2 2-6 9-11 18-16 28 0 1-1 2-1 4-2 3-4 7-5 10-1 2-1 4-2 6-1 3-2 6-3 10 0 1-1 3-1 5-1 4-2 7-2 11-1 2-1 3-1 5-1 6-2 11-2 16l18 0c5-85 75-152 162-152 86 0 156 67 161 152l18 0c-5-94-83-170-179-170z m-47 356c2 0 3 0 4 0l2 0c1 0 2 0 3 0l2 0c1 0 1 0 2 0 2-1 3-1 5-1 12 0 23 7 27 19 3 7 2 16-2 24-4 6-9 11-16 12-13 3-24 3-36 2-7-1-14-5-18-12-5-6-6-14-5-21 2-15 17-25 32-23z m-12 34c1 2 3 4 6 4 9 1 19 1 29-1 2-1 3-3 4-4 2-3 2-7 1-9-3-8-11-7-14-6l0 0-1 0c-1 0-2 0-2 0-2 0-4 0-5 0l-1 0-2 0c-2 0-4 0-5 0-6-1-11 3-12 8-1 3 0 6 2 8z"/>
<glyph glyph-name="mango" unicode="&#78;" d="M511 194l0 4-162-21c2 4 4 7 6 11 10 24 16 48 17 71 0 13-2 25-5 37 0 2 0 4 0 6 1 28-14 51-20 61 2 18-1 37-13 51 2 2 4 3 7 4 0 0 0 0 0 0 5 1 9 3 12 6 4 4-2 9-5 6-2-2-5-3-7-4-1 0-1 0-1 0-7-1-17 1-23 2l0 0c-1 1-29 31-69 34-39 3-106-49-109-51l-9-7 11 2c1 0 78 10 112 0 5-2 11-3 16-3 20 0 37 12 44 18 4-1 8-2 12-3-15-10-23-24-29-41-34 18-70 23-104 14-35-10-65-33-84-67-9-15-17-31-24-47-3-6-6-13-10-20-14-29-34-49-60-59-7-3-12-8-13-13-2-6 0-13 5-20 19-28 41-48 65-65 17-12 53-23 60-25 10-2 21-3 33-3 13 0 28 2 42 5 29-18 67-27 107-27 11 0 23 0 34 2 98 13 172 76 164 142z m-264 262c29-2 51-19 61-27-8 2-19 3-32 3l0 0 0 0c-6 0-13-1-19-1l0 0 0 0c-41-4-90-14-104-17 20 14 66 45 94 42z m-60-40c-8-1-16-1-23-2 7 1 15 3 24 5z m15 0c-4 0-8 0-12 0l1 3c4 1 8 2 13 2z m7 0c-1 0-3 0-5 0l2 6c5 0 9 1 14 2l-4-8c-2 0-5 0-7 0z m9 0l4 8c5 1 10 2 15 2l-5-11c-4 1-9 1-14 1z m17-1l4 12c6 0 11 1 17 1l-7-15c-4 1-9 2-14 2z m20-4c-1 1-2 1-3 1l6 17c6 0 11 0 17 1l-9-21c-4 1-7 1-11 2z m14-2l8 21c6 0 11 0 16-1l-7-17c-5-1-11-3-17-3z m20 4l6 16c6 0 11-1 15-3-4-3-11-9-21-13z m157-231c9-2 18-7 25-16-21-4-42-8-62-11-8 8-17 14-27 19z m-18-54c-26-4-51-9-75-15-6 6-12 13-17 19-3 2-5 4-7 7 26 4 53 8 79 13 8-7 14-15 20-24z m-50 46c10-5 20-12 28-20-26-5-53-9-79-13-9 8-19 16-29 22z m-54-34c-21-3-42-6-63-9-9 9-19 17-30 24l63 8c11-6 21-14 30-23z m38 163c-1-24-33-56-48-70 0 0 0 1 0 1 7 17 34 90 30 122 7-10 18-31 18-53z m-21 28c-1-4-2-9-3-13l-15-2c0 1 0 2 0 3-1 3-1 6-1 9z m-18-1c0 6 2 10 4 14l15 2c0-4 0-8-1-13z m1-42c0 4 0 7 0 11l10 1c-1-3-2-7-3-11z m6-1c-1-4-2-7-3-11l-5 0c1 3 1 6 2 9z m-6 14c0 5 0 9 0 13l14 2c-1-5-2-9-4-13z m2-27c-1-4-2-7-3-10l-3-1c1 4 2 7 2 11z m-4-13c-2-3-3-7-4-10 1 3 1 7 2 10z m19 100c1-4 2-8 2-13l-15-1c5 7 10 12 13 14 0 0 0 0 0 0z m-14 49c11-12 13-28 12-43-2-2-7-6-12-13-9 8-18 15-24 19 5 14 12 28 24 37z m-34-41c-1-3-1-6-2-9-1-5 6-7 8-2 0 2 1 4 1 7 6-4 14-11 22-17 0 0 0-1 0-1-1-2-2-4-3-7-6-2-18 1-31 6-18 9-28 20-26 25 1 1 1 2 3 3 1 0 4 1 6 1 5 0 12-2 19-4 1-1 2-2 3-2z m-160-286c-7 2-40 11-58 24-23 17-44 36-63 63-3 5-5 9-4 12 1 3 4 6 10 8 27 12 48 33 64 64 3 6 6 13 9 20 8 15 15 31 24 46 18 32 46 54 79 63 27 7 56 5 83-7-5 1-10 1-13 0-2-1-3-2-4-4-3-7 9-20 28-28 9-4 19-7 26-7 1 0 3 0 4 1-2-6-2-13-1-20 6-30-11-92-11-92l-2-9 7 6c2 1 37 31 51 59 1-7 2-15 1-23 0-22-6-44-16-68-2-5-5-10-8-15l-184-24 0-4c3-23 16-45 38-62 1-1 3-2 4-3-23-4-46-4-64 0z m213-24c-58-8-113 4-149 32-19 15-31 34-34 55l18 2c13-31 50-52 79-65 30-13 64-22 97-22-3-1-7-2-11-2z m26 4c-38-3-76 7-111 22-28 13-64 33-77 64l43 5c12-6 22-14 31-24-10-1-20-3-30-4-1-1-1-3 1-3 10 2 21 4 31 5 5-5 9-10 13-16 1-1 3 0 2 1-4 6-7 11-12 16 21 3 42 6 63 9 2-2 4-3 5-5 7-7 13-14 19-21-9-2-18-5-27-7-1 0-1-3 1-2 9 2 18 5 28 7 4-6 9-13 11-20 1-1 3-1 3 0-3 8-7 14-12 21 25 6 51 11 76 15 1 1 1 2 0 3-5 8-12 16-19 24 24 4 48 8 72 13 1 0 1 3-1 2-3 0-6-1-9-1-6 8-13 13-22 16l54 7c4-55-54-108-133-127z"/>
<glyph glyph-name="orange" unicode="&#79;" d="M484 449l23 57-62 6c-44 3-86-16-112-51-28 11-58 17-89 17-131 0-239-107-239-239 0-132 108-239 239-239 132 0 240 107 240 239 0 54-19 106-52 148 23 14 41 35 52 62z m-20-210c0-121-98-220-220-220-121 0-220 99-220 220 0 121 99 220 220 220 27 0 54-5 79-14 0 0 0-1 0-1-2-4-4-8-6-12l-16-39c-13 6-25 8-26 9-6 0-10-3-11-8-1-5 2-10 8-11 0 0 4-1 10-3-3-3-7-7-10-10-4-4-4-10 0-14 2-1 5-2 7-2 2 0 5 1 7 3 5 5 10 10 16 14 6-5 11-10 14-17 1-4 5-6 9-6 1 0 2 0 3 1 5 2 8 7 6 12-2 4-4 8-6 11l28-2c3-1 7-1 10-1 1 0 3 0 4 0 0 0 1 0 2 0 15 1 29 4 42 10 33-40 50-89 50-140z m-47 162l-4-2c-13-6-27-10-41-11 0 0-1 0-2 0-4 0-8 0-13 1l-24 2c45 41 92 57 102 59 3-1 5 0 7 2 3 3 4 6 3 10-1 3-4 6-7 7-7 1-58-14-108-55l5 11c2 6 6 13 10 19l3 4c21 30 57 48 96 44l35-2-13-34c-9-24-27-43-49-55z m-22-75c0-11-8-20-19-20-10 0-19 9-19 20 0 10 9 19 19 19 11 0 19-9 19-19z m51-107c0-11-8-19-19-19-11 0-19 8-19 19 0 10 8 19 19 19 11 0 19-9 19-19z m-3 59c0-11-8-19-19-19-11 0-19 8-19 19 0 10 8 19 19 19 11 0 19-9 19-19z m-58-39c0-10-8-19-19-19-10 0-19 9-19 19 0 11 9 19 19 19 11 0 19-8 19-19z m10-67c0-10-8-19-19-19-10 0-19 9-19 19 0 11 9 20 19 20 11 0 19-9 19-20z m-172 230c0-11-8-19-19-19-11 0-19 8-19 19 0 11 8 19 19 19 11 0 19-8 19-19z m-67-29c0-10-8-19-19-19-11 0-19 9-19 19 0 11 8 19 19 19 11 0 19-8 19-19z"/>
<glyph glyph-name="pineapple" unicode="&#81;" d="M413 215c-2 5-3 11-7 15-2 2-4 4-4 6-1 3 0 6 0 9 0 12-2 24-6 35-5 11-9 21-16 29-4 5-8 10-14 13-1 1-2 2-3 2 3 3 5 7 7 11 3 6 9 10 12 16 4 6 8 12 12 19 3 5 6 11 9 17 1 2 1 4 0 6-3 4-7 4-13 3-6-1-13-2-19-4-4-1-10-2-15-4 1 2 3 4 4 6 6 13 11 26 14 40 1 7 2 15 3 22 1 5 2 12-5 14-5 2-11 0-16-1-7-2-13-5-20-7 0 0 0 0-1-1 0 9-1 18-3 26-1 5-3 9-4 13-2 4-4 8-7 10-2 2-4 3-7 1-5-3-8-7-12-11-4-5-8-11-12-16-4-4-7-10-10-15-2 3-3 6-5 9-2 5-5 11-9 15-1 0-1 1-1 1-4 7-9 4-14-1-5-5-9-11-12-18-1 1-3 2-4 4-5 3-9 7-15 10-9 6-20 11-30 16-4 2-8 0-8-5-1-3-1-7-1-10 0-5 1-9 0-13 0-8-1-15 0-22-11 4-24 7-36 5-2-1-3-2-4-4-1-8 1-17 3-25 2-9 4-17 8-25 4-10 10-19 17-28-5-1-10-4-14-4-5-2-10-3-15-5-5-3-10-4-14-7-3-1-4-5-2-7 2-5 8-7 13-9 3-2 7-3 11-4 3-1 6-3 9-4 6-2 14-2 20-4 1 0 1 0 1 0-7-3-13-7-18-12-7-6-11-14-17-22-6-7-12-15-16-23-3-4-5-7-7-11-2-5-3-10-4-15 0-3-1-6-2-9 0-5-3-9-5-13-4-8-6-17-9-26-3-10-5-21-5-31-1-10 1-20 5-28 3-4 6-8 7-13 1-5 2-11 2-16 3-19 8-43 22-57 6-7 16-10 23-17 7-7 13-14 22-19 8-4 16-9 25-11 10-1 21 0 31-1 2 0 5 0 7 0 2-1 5-2 7-3 5-3 10-4 16-5 5-1 10-2 16-2 5 1 11 1 16 2 11 2 21 7 29 13 4 3 9 6 12 10 1 2 2 4 4 6 2 1 4 2 6 4 0 0 0 0 0 0 2 1 4 2 5 4 4 4 7 9 11 12 4 4 8 6 11 9 5 5 10 10 14 14 8 9 13 19 15 31 1 6 1 12 0 18 0 7 2 12 4 18 10 23 17 50 8 74z m-39 81c2-2 3-5 4-7 0 0 1-1 1-2 0 0 0 0 1-1 1-5 4-10 5-15 2-6 4-11 4-17 1-8 0-15 1-21-6-2-13-6-19-9-7-5-14-10-21-15-3 3-5 6-7 8-5 6-9 12-13 18-4 7-6 14-9 22-1 3-2 6-3 8 10 5 20 10 30 16 8 6 17 11 26 17 0-1 0-1 0-2z m-148-90c10-18 24-32 36-48 2-3 4-5 6-8-7-5-15-9-23-13-10-5-20-8-30-14-4-2-8-5-13-8-3-3-6-4-9-7-1 5-3 9-5 12-3 8-8 15-14 22-6 8-14 16-21 23 16 15 33 27 50 40 6 3 11 7 17 11 2-3 4-7 6-10z m-22 56c-3 4-6 8-8 11 15 8 31 18 43 30 7 6 14 10 22 15 1 1 2 2 4 3 0-1 1-1 1-1 4-4 8-7 11-11 8-6 14-14 20-22 4-5 7-11 9-16-6-4-13-7-20-10-10-4-20-8-29-13-11-7-23-13-34-21-6 12-12 24-19 35z m51-80c-7 8-12 17-19 25-3 4-6 9-9 13 9 6 18 11 27 16 18 10 37 17 56 25 0 0 0-1 1-2 3-9 5-18 10-27 6-11 13-20 20-29-6-5-11-11-18-15-8-6-17-13-25-19-7-5-14-9-21-14-1 1-2 2-2 3-6 9-13 17-20 24z m40-26c9 6 17 13 26 19 8 5 14 11 21 16 2 1 4 3 6 4 3-3 6-7 8-10 11-14 18-31 27-46-2-1-5-3-7-4-8-5-15-10-22-16-7-6-15-11-23-16-7-4-13-8-20-12-1 3-3 5-4 7-7 10-11 21-15 31-3 6-7 12-10 18 4 3 9 6 13 9z m70 153c1-2 3-4 4-5-7-2-14-8-20-11-10-5-19-11-29-16-2-1-4-2-6-3-4 8-8 16-14 23-5 7-11 13-18 18-3 3-6 6-9 8-1 0-1 1-2 1 0 0 1 0 1 1 5 0 11 1 16 2 6 2 12 6 16 9 4 2 7 4 11 6 0 0 0 0 0 0 16-13 36-18 50-33z m4 71c5 1 11 2 16 3 1 0 3 1 4 1-5-9-10-18-16-27-3-5-8-10-12-15-1-2-1-5-3-7-1-1-3-3-4-5-5 3-11 7-16 9-4 1-8 3-12 5-2 0-3 0-4 0 4 2 9 4 14 6 5 1 9 2 12 4 4 2 8 3 11 6 0 0 1 1 0 2 0 0 0 0 0 1 0 1-1 1-2 1-3-1-6-2-9-3-4-2-8-4-12-5-2-1-4-1-5-2 2 2 4 4 6 6 4 5 8 9 11 14 2 1 3 1 4 2 6 1 11 2 17 4z m-81 85c3 5 7 9 10 14 4 4 7 9 11 13 2 2 5 5 7 8 1-2 2-4 3-6 1-4 3-7 3-11 2-8 2-16 3-24 0-1 0-1 1-2-11-6-20-13-28-21 0 3 1 7 2 11 1 4 2 9 3 14 1 3 1 9 3 12 1 1-1 2-1 1-2-2-3-6-4-9-2-4-4-9-6-14-1-5-2-10-4-14 0-1 0-2 0-2-1 8-4 16-7 24 2 2 3 4 4 6z m-6-70c4 11 12 21 20 30 8 9 17 16 27 22 11 6 21 10 33 12 2 1 3 1 5 1 0 0 0 0 1 0-1-1-1-3-1-3 0-1 0-2-1-4 0-7-1-14-2-20-5-23-17-44-31-62-8-10-20-19-31-25-5-2-10-5-15-8-3-2-8-3-13-4 4 6 8 11 12 17 4 4 8 8 11 12 3 4 5 8 8 11 5 9 11 16 17 24 3 4 6 7 8 11 1 3 3 6 3 9 0 2-3 2-4 1-1-2-2-3-3-4-2-2-3-4-4-6-3-3-5-6-8-10-6-7-12-15-17-22-5-9-12-16-18-24-3-3-6-7-9-11 0 1 0 2 0 2-1 6 1 12 2 18 1 6 2 11 4 16 1 2 1 5 2 8 1 3 3 5 4 9z m-42 26c1 11 1 22 3 33 0 0 0 0 0 0 2 6 5 12 8 18 2 4 5 10 8 14 2-4 5-8 6-12 4-10 7-20 9-31 2-9 4-17 5-26-1-2-1-4 0-6-2-2-3-4-4-6-4-7-6-14-8-21-1-3-3-6-4-10-1-3-1-6-2-10 0 3 0 7 0 10 0 4 0 9 0 14 0 4-1 8-1 13 0 4 1 7 1 11 0 8 3 16 1 24-1 1-3 1-4 0-2-8-4-16-4-24 0-4-1-7-1-11 0-5 1-9 1-13 0-5 0-10 0-14 0-5 1-9 1-13 0-5 1-8 1-13-2 5-4 9-6 13-5 10-6 21-7 32-2 9-3 19-3 28z m-47 56c0 4-1 8-1 12 0 1 0 2 0 3 1-1 3-2 5-2 4-2 8-5 13-7 8-5 16-10 22-17 1-1 2-1 4-1-3-9-4-17-4-25 0-2-1-5-1-7 0 0 0 0 0 0-1 2-2 4-3 6-3 6-7 11-11 16-2 4-6 7-8 11-1 2-3 4-5 3 0 0 0 0 0-1 1-1 1-4 2-5 0-2 1-4 2-5 3-5 6-10 9-15 2-3 4-7 6-11-1 1-1 1-1 1-8 5-15 10-23 15-3 1-7 3-10 4 3 8 3 17 4 25z m-30-70c-4 7-6 14-8 22-1 4-2 8-2 13-1 2-1 5-1 8 16 1 33-7 47-15 6-4 14-8 20-13 3-4 7-8 12-10 0-1 0-1 0-2 0-2 1-4 1-7 0 0 0-1 0-2 0-3 0-6 1-9 0-3 0-6 1-10 1-11 5-21 9-31 2-3 3-6 5-10-4 5-8 11-12 16-7 8-15 16-22 25-3 4-5 8-9 11-3 3-6 7-10 10-5 5-8 14-16 18 0 1 0 0 0 0 2-4 3-9 5-13 2-4 4-7 7-10 3-3 6-7 9-10 4-3 7-8 10-12 7-9 14-17 21-26 2-3 4-5 6-8-1 0-2 1-4 1-3 2-5 3-8 5-7 3-13 5-19 10-5 5-11 9-16 14-6 5-11 11-15 17-5 6-9 11-12 18z m4-59c-3 1-6 1-9 2-3 1-5 2-8 3-3 1-7 2-10 4 7 2 14 5 20 7 5 1 9 3 14 4 0 1 2 1 3 1 1-1 2-2 2-2 4-4 7-7 11-10 0 0 0 0 0 0-8 1-15 5-23 3 0 0 0 0 0-1 8-1 15-6 23-9 3-1 7-2 10-4 1 0 2 0 2-1-3-1-7-2-10-4-1 1-3 2-5 2-7 2-13 3-20 5z m-3-36c7 7 14 12 22 17 8 5 15 7 24 9 8 2 12-1 19-4 10-4 20-8 31-9-2-1-3-1-4-2-8-3-15-7-21-12-14-12-29-22-44-31-3 3-6 7-9 10-5 4-11 9-15 15-1 1-3 3-4 5 0 1 1 1 1 2z m-38-72c1 7 1 16 4 23 5 10 11 18 17 26 3 4 7 7 9 11 2 2 3 4 4 6 2-2 3-6 4-8 4-5 7-8 11-12 3-3 6-6 9-10-15-8-30-15-43-25-3-3-6-6-9-8-2-2-4-3-6-5 0 0 0 1 0 2z m2-10c3 4 7 6 10 9 4 4 8 7 12 10 13 7 26 14 39 21 3-3 5-7 7-10 5-9 10-18 15-28 1-3 3-6 5-10-4-2-7-5-11-7-8-7-17-13-25-20-9-7-18-14-27-22-1-1-3-2-4-3-3 4-5 7-8 11-5 9-10 18-14 28-2 5-2 11-3 17 1 1 3 3 4 4z m-11-92c-1 4-4 7-6 11-3 4-3 8-4 13-3 18 4 38 11 54 0 0 0-1 0-1 2-9 5-17 9-24 5-10 10-18 16-26-6-5-11-11-17-17-3-3-6-7-9-10 0 0 0 0 0 0z m29-79c-18 10-23 33-25 52 0 6-1 13-2 20 0 0 0 0 0 0 3 4 7 8 10 11 6 7 12 12 18 18 4-5 8-9 12-14 6-8 12-14 16-22 5-7 7-15 10-23-14-12-27-27-37-43-1 1-1 1-2 1z m72-34c-10 1-19-1-29 3-8 3-16 8-22 14-5 5-9 9-14 13 11 13 22 26 35 38 2-7 4-13 7-19 3-8 8-15 11-23 3-8 10-16 16-22 1-1 2-3 4-4-3 0-6 0-8 0z m16 6c-1 1-2 2-4 3-6 6-11 13-15 20-7 14-14 28-19 43 0 1 0 2 0 2 6 5 13 10 19 14 10 6 19 9 29 14 10 4 20 9 29 15 3-4 5-9 7-13 5-10 9-21 14-31 3-4 5-8 8-11-14-8-29-14-41-25-9-9-20-19-27-31z m101 11c-3-1-5-3-7-5-3-3-5-6-9-9-7-6-14-10-23-12-9-3-19-4-28-2-4 0-9 1-13 2-4 2-7 5-11 6-1 0-2 1-3 1 0 1-1 2-1 3 9 11 17 22 28 32 12 9 26 15 39 22 2-3 4-6 7-8 8-9 16-16 20-28 1 0 1-1 1-1 0 0 0-1 0-1z m44 43c-5-5-10-9-15-14-2-2-4-4-6-5-3-2-5-3-7-5-3-3-6-7-8-10-4 8-9 16-16 22-4 4-7 7-10 11 0 0 1 1 1 1 7 3 14 8 22 12 7 4 14 8 20 14 6 5 14 11 21 15 3 2 6 3 8 4 0 0 0 0 1 0 0-4 0-7 1-12 1-12-4-25-12-33z m18 66c-1-2-3-5-4-8-1 1-1 2-1 3-2 4-4 8-7 12-5 7-8 14-12 21-4 6-9 12-14 18-1 2-2 3-3 4 4 4 8 7 13 10 8 5 16 9 25 14 1-1 1-1 1-2 18-20 11-50 2-72z"/>
<glyph glyph-name="strawberry" unicode="&#82;" d="M345 238c-4 4-10 4-14 0l-11-10c-4-5-4-11 0-15 2-2 5-3 7-3 3 0 6 1 8 3l10 10c4 4 4 11 0 15z m65-63c-4 4-10 4-15 0l-10-10c-4-5-4-11 0-15 2-2 5-3 7-3 3 0 6 1 8 3l10 10c4 4 4 11 0 15z m-57 4c-4 4-11 4-15 0l-11-11c-4-4-4-11 0-15 2-2 5-3 8-3 3 0 5 1 7 3l11 11c4 4 4 10 0 15z m-213-77c-15 8-29 22-42 41-4 4-10 6-15 2-5-3-6-10-2-14 14-21 31-37 49-47 2-1 3-1 5-1 4 0 7 2 9 5 3 5 1 11-4 14z m-57 65l0 0c-2 5-9 7-14 4-5-2-7-9-4-14l0 0c2-4 5-6 9-6 2 0 3 1 5 1 5 3 7 9 4 15z m-14 73c-6 0-11-5-11-11l0-15c0-5 5-10 11-10 6 0 10 5 10 10l0 15c0 6-4 11-10 11z m90-2c-5 0-10-4-10-10l0-15c0-6 5-10 10-10 6 0 11 4 11 10l0 15c0 6-5 10-11 10z m91 2c-6 0-11-5-11-11l0-15c0-5 5-10 11-10 6 0 10 5 10 10l0 15c0 6-4 11-10 11z m-134-37c-6 0-10-5-10-11l0-15c0-5 4-10 10-10 6 0 11 5 11 10l0 15c0 6-5 11-11 11z m91-2c-6 0-11-4-11-10l0-15c0-6 5-10 11-10 5 0 10 4 10 10l0 15c0 6-5 10-10 10z m-48-41c-5 0-10-5-10-10l0-15c0-6 5-11 10-11 6 0 11 5 11 11l0 15c0 5-5 10-11 10z m335 176c4-4 11-4 15 0 4 4 4 11 0 15-9 9-22 13-35 12-10-1-19-4-27-10-12 11-26 21-39 29 0 0 0 0-1 0-3 2-6 3-9 5-52 24-105 18-146-18-8 5-17 9-26 12-14 6-34 9-56 10 5 35 30 62 61 62 6 0 10 5 10 11 0 6-4 10-10 10-42 0-77-36-82-83-16-1-32-3-47-7 0 0 0 0 0 0-4-1-7-2-10-3 0 0 0 0 0 0-28-10-51-26-66-47-17-23-26-50-26-81 0-12 1-24 4-37 0 0 0-1 0-1 8-42 28-85 54-118 30-38 66-59 101-59 28 0 56 12 81 35 16-6 33-8 52-8 50 0 105 19 145 46 0 0 0 0 1 0 11 8 22 16 31 25 22 22 35 47 39 76 3 26-2 54-14 80-7 14-18 30-32 46 4 2 9 4 14 4 7 1 14-2 18-6z m-387 28c16 4 34 6 51 6 1 0 1 0 1 0 1 0 1 0 1 0 20 0 39-2 53-6 0 0 0 0 0 0 19-7 32-19 38-36-19 11-41 18-56 18-4 0-8-3-10-7-1-4 0-9 3-12 3-2 13-11 20-28-13 11-26 20-44 27-2 0-4 1-6 0-15-2-31-15-45-28 8 21 18 31 18 31 3 3 4 8 2 12-2 4-6 6-10 6-2 0-28-2-51-9 12 17 33 25 35 26z m52-305c-62 0-119 82-134 159 0 1-1 1-1 1-2 12-3 24-3 34 0 26 7 49 21 67 0 0-1-1-1-1 0-5 2-9 5-11 4-2 9-2 12 1 10 7 28 12 44 14-7-12-14-30-17-53 0-4 2-8 5-11 4-2 8-2 12 1 5 4 11 9 19 16 11 11 26 26 38 29 22-9 34-21 57-42l1-2c2-2 5-3 8-3 1 0 2 0 4 1 4 2 6 6 6 10-1 22-7 38-14 50 14-5 28-13 38-24 3-3 8-4 12-3 4 2 7 6 6 11 0 7-1 14-2 21 15-20 23-44 23-71 0-11-2-23-4-36 0 0 0 0 0 0-8-38-27-78-50-108-26-32-56-50-85-50z m295 92c-8-8-18-16-28-23-1 0-1 0-1 0-27-18-60-32-93-38-29-6-55-6-76 0 1 2 3 4 4 6 26 33 46 75 54 117 0 0 0 0 0 0 3 14 5 28 5 40 0 31-9 59-26 81-7 9-14 16-23 23 15 12 32 19 50 22 0 0-1 0-1-1-4-2-5-7-4-11 1-4 4-7 8-7 13-2 29-12 42-21-14-4-31-12-50-26-3-3-4-7-3-11 1-4 4-7 8-8 6-1 15-1 25-2 16 0 37-1 47-6 10-23 10-39 10-70l0-3c0-4 3-8 7-9 4-2 9-1 11 2 15 16 23 32 26 46 6-13 11-30 10-44 0-5 3-9 7-10 1-1 2-1 4-1 3 0 5 1 7 3 5 6 10 11 13 17-3-24-14-47-33-66z m18 138c0 0 0 0 0 0 8-19 9-36 2-53-6 22-16 42-27 53-3 3-8 4-12 2-4-2-7-6-6-10 0-4 1-17-7-34-1 17-4 32-12 50 0 2-2 3-3 4-13 9-33 11-52 12 20 9 34 9 34 9 5 1 9 3 10 7 2 4 1 9-3 12-1 1-20 18-42 30 21 3 41-6 44-7 14-8 41-32 41-33 0 0 26-29 33-42z"/>
<glyph glyph-name="tuna" unicode="&#83;" d="M448 264l0 0c-4 0-8-3-8-8 0-4 4-8 8-8 4 0 8 4 8 8 0 5-4 8-8 8z m60-33l-14 9 14 9c3 2 4 4 4 7 0 2-1 5-3 6-3 3-67 51-141 57-1 16-4 35-19 47-2 2-4 2-6 2-4-1-6-3-6-5-7-11-23-17-35-19-30-6-46-19-54-27-11 10-30 27-48 27-3 0-6-2-7-5-2-3-1-7 2-9 0 0 4-4 7-11 4-8 4-16 1-24-13-4-24-8-35-11-29-10-55-19-76-20-4 6-13 18-25 31-22 24-41 38-57 41-4 1-7-1-9-3-1-3-1-7 0-9 15-22 39-62 39-76 0-14-24-53-39-75-1-3-1-7 0-9 2-3 4-4 7-4 1 0 1 0 2 0 16 4 35 18 57 41 12 13 21 25 25 31 21-1 47-10 76-19 3-2 6-3 9-4 2-8 3-17-7-28-2-2-3-5-1-8 0-2 3-5 7-5 1 0 2 0 3 0 12 0 38 4 53 25 28-8 59-14 94-16 3-6 3-18 2-24-1-3 1-6 3-8 2-1 3-1 5-1 1 0 3 0 4 1 12 8 22 23 26 32 47 2 83 18 108 29 13 5 24 10 30 10 4 0 7 2 8 6 1 3-1 7-4 9z m-202 97c12 3 28 8 39 19 5-7 6-18 7-27-32 0-60-3-86-8 8 6 20 12 40 16z m-87-8c6-4 12-10 18-15-6-1-11-3-17-4 1 7 1 13-1 19z m-28-135c3 7 4 13 3 19 7-2 14-5 21-7-7-7-16-10-24-12z m152-9c1 0 3 0 4 0-1-2-2-3-3-5 0 2-1 3-1 5z m133 57l9-6c-5-1-11-4-17-7-17-7-38-16-63-22-15 9-22 24-22 43 1 16 6 30 8 34 2 4 1 9-3 11-4 2-9 1-11-3-4-7-9-24-10-42 0-19 6-35 17-47-7-1-15-1-22-2-1 0-2 0-3 0-2 0-5 0-7 0-74 0-132 20-179 36-32 11-60 20-85 20-3 0-5-1-7-3-8-13-29-39-50-56 12 20 25 45 25 59 0 14-13 39-25 59 21-17 42-43 50-55 2-3 4-4 7-4 25 0 53 10 85 21 11 3 23 7 35 11 2 0 3 1 4 1 39 12 85 23 140 23 60 0 116-33 138-48l-14-9c-3-2-4-4-4-7 0-3 1-5 4-7z m-128 16l1 0c4-2 9 0 10 4 2 4 0 9-4 10l-1 1c-11 4-38 16-70-1-2-1-4-4-4-7 0-4 3-6 8-10 3-1 7-4 11-6 9-5 19-11 25-15 6-3 11-4 16-4 7 0 13 2 17 5 3 2 4 7 2 11-3 3-8 4-12 2 0 0-7-5-15 0-7 4-18 11-26 16 18 4 33-2 42-6z"/>
<glyph glyph-name="bbq" unicode="&#84;" d="M477 512l-442 0c-19 0-35-16-35-35l0-261c0-19 16-35 35-35l174 0c3-8 11-14 20-14l34 0 0-145c0-3-2-6-5-6l-2 0c-3 0-6 3-6 6l0 128c0 4-3 8-8 8-4 0-8-4-8-8l0-128c0-12 10-22 22-22l2 0c12 0 22 10 22 22l0 145 4 0c9 0 17 6 20 14l173 0c19 0 35 16 35 35l0 261c0 19-16 35-35 35z m-130-16l39 0 0-43c-12 6-26 9-39 7z m-55 0l39 0 0-40c-15-5-28-16-35-31-2-3-3-7-4-11z m-55 0l38 0 0-144c-2 1-4 3-6 4 0 0-1 0-1 0-17 13-24 31-26 38-1 5-3 11-5 16z m-56 0l39 0 0-62c-6 8-14 14-23 19-5 3-10 5-16 7z m-55 0l39 0 0-32c-4 1-9 1-13 1-9 0-18-1-26-4z m-55 0l39 0 0-41c-16-8-29-20-39-36z m-16-299l-20 0c-10 0-19 9-19 19l0 261c0 10 9 19 19 19l20 0z m55 0l-39 0 0 126c6-10 13-19 23-26 0 0 0 0 0 0 3-2 6-4 9-5 1-1 2-1 3-2 1 0 3-1 4-2 0 0 0 0 0 0z m15 101c-2 1-4 2-7 4-1 1-2 1-4 2-1 1-3 2-4 3-3 1-5 2-7 3 0 0 0 0 0 0-29 23-37 66-19 99 14 25 40 40 68 40 13 0 25-4 37-10 19-10 32-28 37-49 0 0 1-1 1-1 2-8 11-30 32-46 0 0 1-1 1-1 0 0 1 0 1 0 0 0 0 0 0 0 2-2 5-3 7-5 0 0 0 0 0 0 2-1 6-5 8-8 14-16 16-39 5-58-9-17-26-27-45-27-9 0-18 2-25 7-2 0-3 1-4 2-2 1-4 1-5 2 0 1-1 1-1 1l-75 42c-1 0-1 0-1 0z m150-57l0-30-38 0 0 17c14 0 27 5 38 13z m-110-44l-39 0 0 82 39-22z m55 12c0 0 0 0-1 0 0 0 0 0 0-1-1 0-1 0-2 0 0 0 0 0 0-1 0 0-1 0-1 0 0 0 0-1-1-1 0 0 0 0-1-1 0 0 0 0 0 0 0-1-1-1-1-1 0 0 0-1-1-1 0 0 0 0 0-1 0 0-1 0-1 0 0-1 0-1 0-2 0 0-1 0-1 0 0 0 0-1 0-2 0 0-1 0-1 0 0 0 0-1 0-1l-28 0 0 51 11-6c3-2 5-3 8-4 1 0 2-1 3-1 5-4 11-6 17-7z m69-20l0-1c0-3-2-5-5-5l-55 0c-3 0-5 2-5 5l0 2c0 3 2 5 5 5l55 0c3 0 5-2 5-5z m42 8l-27 0c0 0 0 1-1 1 0 0 0 0 0 0 0 1 0 2-1 2 0 0 0 0 0 0 0 1 0 1-1 2 0 0 0 0 0 0 0 1 0 1-1 1 0 0 0 1 0 1 0 0-1 0-1 1 0 0 0 0 0 0-1 1-1 1-2 1 0 0 0 1 0 1 0 0-1 0-1 0 0 1 0 1-1 1 0 0 0 0-1 0 0 1 0 1 0 1-1 0-1 0-2 0 0 0 0 1 0 1 0 0 0 0 0 0l0 46c0 0 0 1 0 1 1 2 2 4 4 6 12 23 11 51-4 73l0 40c0 0 0-1 0-1 6-17 18-32 35-39 1-1 2-2 4-3z m55 0l-39 0 0 118c0 0 0 0 0 0 0 0 0 0 0-1 1-2 2-4 3-6 1-4 5-8 6-9 0 0 0 0 0 0 7-10 18-16 30-18z m-18 112c-1 2-3 4-4 5 0 0 0 1 0 1 0 1-1 3-2 4l0 1c0 0 0 0 0 0 0 1 0 1 0 1-8 17-22 26-28 29 0 0 0 0 0 0-13 6-22 17-27 30-4 13-3 26 3 38 6 12 17 20 29 24 24 8 49-3 60-24 0 0 0 0 0 0 1-1 1-3 2-4 0-1 0-2 1-4 0-1 0-2 1-3 0-1 1-3 1-4 1-4 5-7 9-7 5 1 8 5 7 10 0 2-1 5-2 7 0 1-1 2-1 2 0 1-1 2-1 3 0 2-1 4-2 7 0 0 0 0 0 0-3 6-7 12-12 17 0 0 0 0 0 1l0 53 39 0 0-155c-1 1-1 2-1 3 0 1-1 2-1 2 0 2-1 4-2 6l-10 32c-1 5-6 7-10 6-4-2-7-6-5-11l10-32c0-1 0-1 1-2 0 0 0-1 1-3 0-1 0-2 0-3 3-8 2-17-2-24-4-8-10-14-19-17-12-4-26 0-35 11z m73-112l-39 0 0 84c2 1 4 1 6 2 13 4 23 13 29 24 2 4 3 7 4 11z m55 19c0-10-9-19-19-19l-20 0 0 299 20 0c10 0 19-9 19-19z m-344 180c-14 0-26-11-26-25 0-14 12-25 26-25 13 0 25 11 25 25 0 14-12 25-25 25z m0-34c-5 0-9 4-9 9 0 5 4 9 9 9 5 0 9-4 9-9 0-5-4-9-9-9z"/>
<glyph glyph-name="chipotle" unicode="&#85;" d="M504 211l-63 0c0 0 0 1 0 1 0 12-8 22-18 25-4 11-14 18-25 18-2 0-4 0-5 0-6 11-18 18-31 18-5 0-9-1-14-3-4 7-12 12-21 12-8 0-16-4-20-10-2 1-5 1-7 1-8 0-15-4-20-10-4 1-7 2-11 1-6 11-18 18-31 18-9 0-18-4-25-11-3 1-7 2-10 2-8 0-15-3-20-9 0 0-1 0-2 0l-111 125c-4 5-11 8-18 8-7 0-13-2-18-7-5-5-8-12-7-19 0-7 3-13 8-18l121-107-5-6 0 1c-11 10-27 10-37 0l-30-30-76 0c-4 0-8-4-8-8 0-5 4-8 8-8l27 0c13 0 26-8 32-19l14-25c12-22 36-36 61-36l228 0c25 0 49 14 61 36l14 25c6 11 19 19 32 19l27 0c4 0 8 3 8 8 0 4-4 8-8 8z m-288 41c3 0 5 2 6 4 4 6 10 9 16 9 9 0 16-5 18-14 1-2 2-5 5-6 3-1 5 0 8 1 3 2 7 2 10 0 2-1 5-2 7-1 3 1 5 3 5 5 2 4 5 7 9 7 2 0 4-1 5-2 3-1 5-2 8-1 2 1 4 3 5 5 1 4 5 6 9 6 5 0 9-3 9-8 0-3 2-6 5-7 3-1 7 0 9 2 3 3 8 5 12 5 9 0 16-6 18-15 0-2 2-4 5-5 2-1 5-1 7 0 2 1 4 2 6 2 5 0 9-4 9-10 0-4 4-8 8-8 5 0 10-4 10-9 0 0 0-1 0-1l-139 0-29 30c-10 10-27 10-37 0l0-1-16 17c2-1 4-2 5-3 2-2 5-3 7-2z m33-41l-17 18 0 0c1 2 4 3 6 3 3 0 5-1 7-3l18-18z m-206 161c0 2 1 4 3 6 1 2 3 2 6 2 0 0 0 0 0 0 2 0 4-1 6-2l99-111-111 99c-2 1-3 3-3 6z m136-127c1 2 4 3 6 3 3 0 5-1 7-3l34-34-46 0-18 18z m-53-16c3 3 9 3 13 0l17-18-48 0z m304-45l-13-25c-10-17-28-27-47-27l-228 0c-19 0-37 10-47 27l-13 25c-3 4-5 7-9 11l366 0c-4-4-6-7-9-11z m-68 37c2 0 4 1 6 3 2 1 2 3 2 5 0 3 0 5-2 6-2 2-4 3-6 3-2 0-4-1-6-3-1-1-2-3-2-6 0-2 1-4 2-5 2-2 4-3 6-3z m-35 9c2 0 4 1 6 2 1 2 2 4 2 6 0 2-1 5-2 6-2 2-4 3-6 3-2 0-5-1-6-3-2-1-3-4-3-6 0-2 1-4 3-6 1-1 4-2 6-2z m-27-9c2 0 5 1 6 3 2 1 3 3 3 5 0 3-1 5-3 6-1 2-4 3-6 3-2 0-4-1-6-3-1-1-2-3-2-6 0-2 1-4 2-5 2-2 4-3 6-3z"/>
<glyph glyph-name="teriyaki" unicode="&#88;" d="M126 193c32-21 68-35 96-38 4 0 9 0 13 0 53 0 63 36 69 70 0 1 0 1 0 2 10-5 28-14 47-17 7-1 14-2 21-2 24 0 49 7 65 19 21 16 28 40 22 71-4 21-30 48-51 57-6 3-15 7-26 12-26 12-61 29-86 40-34 14-71 10-93-13-16-16-19-38-19-52-8 6-13 10-13 10 0 0 0 0 0 0-11 9-26 14-41 14-15 0-29-4-42-12-31-18-38-50-24-96 6-20 29-44 62-65z m85 193c19 20 51 24 81 10 24-10 60-27 85-39 11-5 20-9 27-12 21-10 41-35 44-50 6-26 0-46-18-59-17-13-50-20-77-15-21 4-41 14-48 18-1 15-8 28-19 40-12 13-29 23-46 29-14 4-31 15-45 25-1 8-1 36 16 53z m-117-42c11 7 24 11 36 11 13 0 25-4 34-11 2-3 44-38 72-47 16-5 31-14 42-25 13-14 18-29 15-45-6-39-18-61-58-61-4 0-8 0-12 0-55 6-137 58-148 96-13 41-7 67 19 82z m170-151c1 0 1 0 1 0 3 0 5 3 5 6-1 7 3 13 4 13 1 3 1 6-2 8-2 2-6 1-8-1 0-1-6-10-5-21 0-3 3-5 5-5z m160 58c3 0 6 3 6 6 0 7 3 14 3 15 1 2 0 6-3 7-3 1-6 0-7-3-1 0-4-9-4-19 0-3 2-6 5-6z m-249 58c15-12 37-28 56-35 0 0 1 0 2 0 2 0 4 1 5 3 1 3 0 6-3 7-17 7-39 22-53 33-3 2-6 2-8-1-2-2-2-6 1-7z m-17 13c1-1 2-1 3-1 2 0 3 0 5 2 2 2 1 6-1 8-4 3-7 5-7 5-2 2-6 2-8 0-2-3-1-6 1-8 0 0 2-2 7-6z m158 39c16-10 41-22 60-27 0 0 1 0 1 0 3 0 5 2 6 4 0 3-2 6-5 7-18 4-41 16-57 25-3 2-6 1-7-2-2-2-1-6 2-7z m-27 16c0-1 3-2 8-5 1-1 2-1 3-1 2 0 3 1 5 3 1 2 0 6-2 7-5 3-8 5-8 5-2 1-6 1-7-2-2-2-1-6 1-7z m223-102c0 43-27 85-76 115-48 31-112 48-180 48-68 0-132-17-180-48-49-31-76-72-76-117l0-34c0-45 27-86 76-117 48-31 112-48 180-48 68 0 132 17 180 48 49 31 76 72 76 117 0 0 0 35 0 36z m-256 152c135 0 245-69 245-154 0-84-110-153-245-153-135 0-245 69-245 153 0 85 110 154 245 154z m0-342c-126 0-231 61-244 138 13-25 34-48 64-66 48-31 112-48 180-48 68 0 132 17 180 48 30 18 51 41 64 66-13-77-118-138-244-138z"/>
<glyph glyph-name="cheddar" unicode="&#89;" d="M490 404c0 0 0 1 0 2-18 46-57 72-87 86-35 15-77 23-111 19-2 0-3-1-5-1l-263-202c0 0 0-1 0-1 0 0-1-1-1-1 0 0-1-1-1-1 0-1 0-1 0-1 0-1 0-1 0-2-1 0-1 0-1-1l3-293c0-2 1-5 3-6 1-1 3-2 5-2 0 0 1 0 2 0l449 106c3 1 6 4 6 8l2 289c0 0-1 0-1 1z m-84-40c2-8 0-17-4-25-5-8-13-13-22-15-18-4-36 7-40 26-1 4-1 8 0 13l61 13c2-3 4-7 5-12z m-111 131c55 5 144-20 176-87l-408-91z m-24-356c4 1 8 2 12 2 7 0 15-2 22-6 10-6 18-16 21-27 1-5 1-14-1-23l-77-17c-4 5-7 10-9 17-6 23 8 48 32 54z m202-19l-131-31c1 7 1 16-1 23-4 15-14 29-28 37-14 8-31 10-46 6-32-9-52-42-43-75 2-6 4-11 8-17l-192-45-3 277 44 10c-3-4-5-9-5-14 0-11 9-20 20-20 11 0 20 9 20 20 0 9-5 16-12 19l219 49c0-4 0-9 1-13 5-23 26-39 49-39 4 0 7 1 11 1 13 3 24 11 31 22 7 12 10 25 7 38-1 4-3 8-5 12l58 13z m-262 161c-22 0-40-17-40-40 0-22 18-40 40-40 22 0 40 18 40 40 0 23-18 40-40 40z m0-64c-13 0-24 11-24 24 0 14 11 24 24 24 13 0 24-10 24-24 0-13-11-24-24-24z m-96-86c-15 0-28-13-28-28 0-16 13-28 28-28 15 0 28 12 28 28 0 15-13 28-28 28z m0-40c-7 0-12 5-12 12 0 6 5 12 12 12 7 0 12-6 12-12 0-7-5-12-12-12z m260 131c0-11-9-20-20-20-11 0-20 9-20 20 0 11 9 20 20 20 11 0 20-9 20-20z"/>
<glyph glyph-name="parmesan" unicode="&#90;" d="M185 512c-67 0-131-13-179-37-3-2-5-5-6-8 0 0 0-1 0-2l0-123c0 0 0 0 0 0 0-4 2-8 6-9l33-17-33-17c-4-1-6-5-6-9l0-124c0-3 2-7 6-9 48-24 112-37 179-37 145 0 258 59 258 134l0 124c0 75-113 134-258 134z m-165-164l0 92 134-66-93-47z m403-94c0-62-109-114-238-114-62 0-120 12-165 33l0 101c46-19 104-30 165-30 92 0 175 24 222 64 6 6 11 11 16 17z m-30 70c-42-37-122-60-208-60l0 0c-56 0-109 10-151 27l147 73c4 2 6 6 6 10 0 3-2 7-6 9l-157 78c45 20 101 31 161 31 129 0 238-52 238-114 0-19-10-38-30-54z"/>
<glyph glyph-name="philadelphia" unicode="&#48;" d="M110 194c-5 0-9 4-9 9 0 5 4 8 9 8l2 0c5 0 9-3 9-8 0-5-4-9-9-9z m150 13c-4 1-8-2-9-5-4-9-5-18-5-28 0-3 0-7 0-10 1-5 5-8 10-8 5 1 8 5 7 10 0 3 0 6 0 8 0 5 0 10 2 15 5 0 11 0 16 0 43 0 82 15 104 40 1-3 0-6 0-9-2-8-7-15-14-19-4-3-5-8-3-12 3-4 8-5 12-3 11 7 18 17 21 30 2 5 2 10 1 15 22-14 35-34 35-57 0-2-1-5-1-8-1-5 3-9 7-10 1 0 1 0 1 0 5 0 8 3 9 8 0 3 1 7 1 10 0 35-25 67-63 81-4 2-8 0-10-4-16-27-56-45-100-45-7 0-14 0-21 1z m-87 52c5-1 9 3 9 7 1 5-3 9-7 10-4 0-8 0-12 0-68 0-123-55-123-123l0-55c0-5 4-9 8-9l94 0c5 0 8 4 8 9 0 4-3 8-8 8l-85 0 0 47c0 59 48 106 106 106 4 0 7 0 10 0z m-87-82c-4 0-8-3-8-8 0-5 4-9 8-9l3 0c5 0 8 4 8 9 0 5-3 8-8 8z m68-115l-137 0 0 389 65 0c5 0 9 4 9 9 0 4-4 8-9 8l-65 0 0 27 292 0 0-27-65 0c-4 0-8-4-8-8 0-5 4-9 8-9l65 0 0-164c0-5 4-9 9-9 5 0 8 4 8 9l0 216c0 5-3 9-8 9l-309 0c-5 0-9-4-9-9l0-449c0-5 4-9 9-9l145 0c4 0 8 4 8 9 0 4-4 8-8 8z m54 247c-4 0-8-4-8-9 0-4 4-8 8-8l3 0c5 0 8 4 8 8 0 5-3 9-8 9z m55-38c2-4 7-6 11-5 5 2 7 7 6 11-18 50-65 83-117 83-68 0-123-56-123-124 0-4 4-8 8-8 5 0 9 4 9 8 0 59 48 107 106 107 45 0 85-29 100-72z m-153-147l2 0c5 0 9 4 9 8 0 5-4 9-9 9l-2 0c-5 0-9-4-9-9 0-4 4-8 9-8z m8 168c5 0 9 4 9 8 0 5-4 9-9 9l-2 0c-5 0-9-4-9-9 0-4 4-8 9-8z m394-100l0-54c0-14-5-26-13-36l-9-67c-2-19-20-35-39-35l-227 0c-20 0-37 16-40 35l-9 67c-8 10-13 22-13 36l0 54c0 31 26 57 56 57l108 0c5 0 9-4 9-9 0-5-4-9-9-9l-108 0c-21 0-39-17-39-39l0-15c0-22 18-39 39-39l238 0c21 0 39 17 39 39l0 15c0 22-18 39-39 39-5 0-9 4-9 9 0 5 4 9 9 9 31 0 56-26 56-57z m-32-105c-7-3-16-5-24-5l-238 0c-8 0-16 2-23 5l6-50c1-11 12-20 23-20l227 0c10 0 21 9 22 20z m15 49c-10-9-24-15-39-15l-238 0c-15 0-28 6-38 15 0-9 4-17 9-24 1 0 1 0 1-1 7-7 17-12 28-12l238 0c11 0 21 5 28 12 0 1 1 1 1 1 6 7 9 15 10 24z m-284 240c5 0 8 4 8 8 0 5-3 9-8 9l-3 0c-4 0-8-4-8-9 0-4 4-8 8-8z m75-53c0 68-55 123-123 123-68 0-123-55-123-123 0-5 4-9 8-9 5 0 9 4 9 9 0 58 48 106 106 106 59 0 106-48 106-106 0-5 4-9 9-9 5 0 8 4 8 9z m-122-16c5 0 9 4 9 9 0 5-4 9-9 9l-2 0c-5 0-9-4-9-9 0-5 4-9 9-9z m0 88c5 0 9 4 9 8 0 5-4 9-9 9l-2 0c-5 0-9-4-9-9 0-4 4-8 9-8z m-46-19c5 0 9 4 9 8 0 5-4 9-9 9l-2 0c-5 0-9-4-9-9 0-4 4-8 9-8z"/>
<glyph glyph-name="butter" unicode="&#49;" d="M427 86l-342 0c-4 0-8-4-8-9 0-5 4-9 8-9l342 0c4 0 8 4 8 9l0 0c0 5-4 9-8 9z m-333-35l-9 0c-4 0-8-4-8-8 0-5 4-9 8-9l9 0c5 0 8 4 8 9 0 4-3 8-8 8z m102 0l-68 0c-5 0-9-4-9-8 0-5 4-9 9-9l68 0c5 0 9 4 9 9 0 4-4 8-9 8z m205 196l-290 0c-19 0-34-15-34-34l0-136c0-4 4-8 8-8l342 0c4 0 8 4 8 8l0 136c0 19-15 34-34 34z m17-161l-324 0 0 127c0 10 8 17 17 17l290 0c9 0 17-7 17-17z m9 0l-342 0c-4 0-8-4-8-9 0-5 4-9 8-9l342 0c4 0 8 4 8 9l0 0c0 5-4 9-8 9z m-188 161l-34 0c-5 0-9-3-9-8l0-60c0-14 12-25 26-25 14 0 25 11 25 25l0 60c0 5-3 8-8 8z m-9-68c0-5-3-8-8-8-5 0-9 3-9 8l0 51 17 0z m77 68l-34 0c-5 0-8-3-8-8l0-26c0-14 11-25 25-25 14 0 26 11 26 25l0 26c0 5-4 8-9 8z m-8-34c0-4-4-8-9-8-5 0-8 4-8 8l0 17 17 0z m-26 34l-34 0c-5 0-9-3-9-8l0-94c0-14 12-26 26-26 14 0 26 12 26 26l0 94c0 5-4 8-9 8z m-8-102c0-5-4-8-9-8-5 0-9 3-9 8l0 85 18 0z m-140 66l-1 1c0 0-1 1-1 1l-2 0c-3 1-6 0-8-2 0-1-1-2-1-3-1-1-1-2-1-3 0-2 1-5 2-6 1-1 2-2 3-2 1-1 2-1 3-1 3 0 5 1 6 3 2 1 3 3 3 6 0 2-1 4-3 6z m378 285c-1 2-2 3-3 4-17 16-44 16-61-1l-120-120c0 0 0 0 0 0-10-10-10-26 0-36l54-55c3-3 8-5 12-5 5 0 9 2 12 5l12 12c0 0 0 0 0 0 10 11 10 27 0 37l-6 6 96 95c16 16 17 41 4 58z m-17-46l-101-101c-3-3-3-9 0-12l12-12c0 0 0 0 0 0 4-4 4-9 0-12l-12-12-54 54c0 0 0 0 0 0-3 3-3 9 0 12l120 120c5 5 11 8 18 8l2 0c7-1 14-4 18-9 8-11 7-27-3-36z m-28 8c0 1-1 1-1 1-1 1-1 1-2 1l-1 0c-2 1-3 1-5 0-1 0-2-1-3-2-1-1-2-4-2-6 0-2 0-5 2-6 1-1 2-2 3-2 1-1 2-1 3 0 1 0 2 0 3 0 2 1 2 1 3 2 2 2 3 4 3 6 0 3-1 5-3 6z m37-372l-68 0c-1 0-2 0-3-1l-336 0c-1 1-2 1-3 1l-68 0c-9 0-17-8-17-17l0-9c0-14 11-26 26-26l11 0 22-28c4-4 9-6 14-6l367 0c5 0 10 2 13 6l22 28 11 0c15 0 26 12 26 26l0 9c0 9-8 17-17 17z m-9-35l-15 0c-3 0-5-1-7-3l-25-31-367 0-24 31c-2 2-4 3-7 3l-15 0c-5 0-9 4-9 9l0 9 65 0c1-1 2-1 3-1l342 0c1 0 2 0 2 1l66 0 0-9c0-5-4-9-9-9z m-337 35l-64 0c-4 0-8-4-8-9 0-5 4-9 8-9l63 0c2 0 5 1 6 3l1 0c1 2 2 4 2 6 0 5-4 9-8 9z m230 220l-54 55c-3 3-9 3-12 0l-117-116c-1-2-2-4-2-6 0-5 4-9 8-9l109 0c3 0 5 1 6 3l62 61c0 0 0 0 0 0 3 4 3 9 0 12z m-71-59l-85 0 96 96 42-43z m-137-34l-17 0c-5 0-9-4-9-8 0-5 4-9 9-9l17 0c4 0 8 4 8 9 0 4-4 8-8 8z"/>
<glyph glyph-name="olive" unicode="&#53;" d="M237 139c-3 9-5 18-5 27 0 5-4 9-9 9-5 0-10-4-10-9 0-11 2-22 6-33 1-4 5-6 9-6 1 0 2 0 3 1 5 1 7 6 6 11z m75-53c0 0 0 0 0 0-23 0-45 10-60 28-4 3-10 4-13 1-4-4-5-10-1-14 18-21 45-33 74-33 0 0 0 0 0 0 5 0 9 4 9 9 0 5-4 9-9 9z m200 258c0 74-61 135-135 135-73 0-132-57-135-129-25 32-64 52-107 52-74 0-135-60-135-135 0-75 61-135 135-135 15 0 30 2 44 7 13-61 67-106 132-106 74 0 135 61 135 135 0 19-4 37-11 54 47 22 77 70 77 122z m-377-194c-64 0-116 53-116 117 0 64 52 117 116 117 56 0 104-40 115-94-47-23-76-70-76-122 0-3 0-7 0-11-12-5-25-7-39-7z m176-99c-65 0-117 53-117 117 0 64 52 117 116 117 2 0 3 0 5 0 1 0 2 0 3 0 40-3 76-27 95-63l4-8c0 0 11-29 11-46 0-64-53-117-117-117z m116 187c-23 37-62 62-108 65-1 0-3 0-5 0-1 0-2 1-3 1 0 0-1 0-1 0 0 0-1 0-1 0-13 0-27-2-40-6-6 14-9 30-9 46 0 64 52 117 117 117 64 0 116-53 116-117 0-45-26-87-66-106z m-248 87c0 16-17 28-37 28-21 0-37-12-37-28 0-17 16-29 37-29 5 0 9 4 9 9 0 5-4 9-9 9-11 0-19 6-19 11 0 4 8 10 19 10 10 0 18-6 18-10 0-6 4-10 9-10 6 0 10 4 10 10z m203 115c-20 0-37-12-37-28 0-17 17-29 37-29 6 0 10 4 10 9 0 5-4 9-10 9-10 0-18 6-18 11 0 4 8 10 18 10 11 0 19-6 19-10 0-6 4-10 9-10 5 0 9 4 9 10 0 16-16 28-37 28z m-64-176c-21 0-37-12-37-28 0-16 16-29 37-29 5 0 9 4 9 9 0 5-4 9-9 9-11 0-19 6-19 11 0 4 8 10 19 10 10 0 18-6 18-10 0-5 4-10 9-10 5 0 10 5 10 10 0 16-17 28-37 28z"/>
<glyph glyph-name="salt" unicode="&#54;" d="M401 35l-35 290 8 0c6 0 10 4 10 10l0 59c0 5-4 10-10 10l-10 0 0 6c0 56-45 102-101 102l-14 0c-56 0-101-46-101-102l0-6-10 0c-6 0-10-5-10-10l0-59c0-6 4-10 10-10l8 0-35-290c-1-9 2-18 8-25 6-6 14-10 23-10l228 0c9 0 17 4 23 10 6 7 9 16 8 25z m-234 375c0 45 37 82 82 82l14 0c45 0 82-37 82-82l0-6-178 0z m-19-26l216 0 0-39-216 0z m230-361c-2-2-5-3-8-3l-228 0c-3 0-6 1-8 3-3 3-4 6-3 9l30 254 36 0c5 0 10 4 10 9 0 6-5 10-10 10l-33 0 2 20 180 0 35-293c1-3 0-6-3-9z m-142 274c0 1 0 2 0 2-1 1-1 1-1 2-1 0-1 1-2 1 0 1-1 1-1 2-1 0-1 0-2 0 0 1-1 1-2 1-1 0-2 0-3 0-1 0-2 0-2-1-1 0-1 0-2 0-1-1-1-1-1-2-1 0-1-1-2-1 0-1 0-1-1-2 0 0 0-1 0-2 0 0 0-1 0-2 0 0 0-1 0-2 0 0 0-1 0-1 1-1 1-2 1-2 1-1 1-1 2-2 0 0 0 0 1-1 1 0 1 0 2-1 0 0 1 0 2 0 0 0 1 0 1 0 1 0 2 0 2 0 1 0 2 0 2 0 1 1 1 1 2 1 0 1 1 1 1 1 1 1 1 1 2 2 0 0 0 1 1 2 0 0 0 1 0 1 0 1 0 2 0 2 0 1 0 2 0 2z"/>
<glyph glyph-name="soya" unicode="&#55;" d="M357 189l-5 11c-27 65-41 132-41 202l0 22 6 29 7 0c4 0 8 4 9 8l5 41c1 3 0 5-2 7-1 2-4 3-6 3l-148 0c-2 0-5-1-6-3-2-2-3-4-2-7l5-41c1-4 5-8 9-8l7 0 6-29 0-22c0-70-14-137-41-202l-5-11c-22-54-29-112-18-170 3-11 12-19 24-19l190 0c12 0 21 8 24 19 11 58 4 116-18 170z m-161 282l-4 24 128 0-4-24-6 0c-5 0-8-3-9-7l-6-30-78 0-6 30c-1 4-4 7-9 7z m162-448c-1-3-4-6-7-6l-190 0c-3 0-6 3-7 6-10 53-4 109 17 159l5 12c28 66 42 136 42 208l0 14 76 0 0-14c0-72 14-142 42-208l5-12c21-50 27-106 17-159z m-31 153l-5 12c-27 65-42 134-43 204 0 5-4 9-9 9l-28 0c-5 0-9-4-9-9-1-70-16-139-43-204l-5-12c-18-43-24-90-18-136 1-4 4-7 9-7l160 0c5 0 9 3 9 7 6 46 0 93-18 136z m-77 208l12 0c1-46 8-90 20-133l-52 0c12 43 19 87 20 133z m79-334l-146 0c-4 41 2 82 18 120l5 11c7 17 14 35 19 52l62 0c5-17 12-35 19-52l5-11c16-38 22-79 18-120z"/>
<glyph glyph-name="mayonnaise" unicode="&#57;" d="M334 328l0 0 0 28c0 21-17 38-38 38l-26 107c-2 7-8 11-14 11-7 0-12-4-14-11l-26-107c-21 0-38-17-38-38l0-28-1 0c-13 0-25-11-25-25l0-277c0-14 12-25 25-25l157 0c14 0 25 11 25 25l0 277c0 14-11 25-25 25z m-130 28c0 7 5 12 12 12l80 0c6 0 12-5 12-12l0-28-104 0z m130-135l-53 0c-14 0-25-11-25-25l0-63c0-14 11-26 25-26l53 0 0-81-156 0 0 276 156 0z"/>
</font>
</defs>
</svg>
